<svg id="Capa_1" data-name="Capa 1" xmlns="http://www.w3.org/2000/svg" viewBox="0 0 183.45 56.74"><defs><style>.cls-1{fill:#f2f2f2;}</style></defs><title>Logo</title><path class="cls-1" d="M0,37V2.4L2.25.1V37Z"/><path class="cls-1" d="M29.9,37H27.7V24.5a10.12,10.12,0,0,0-.82-4,11.2,11.2,0,0,0-2.23-3.32,10.28,10.28,0,0,0-3.3-2.25,10.09,10.09,0,0,0-4.05-.83,9.92,9.92,0,0,0-4,.83A10.37,10.37,0,0,0,10,17.18a11,11,0,0,0-2.23,3.3,10,10,0,0,0-.82,4,10.18,10.18,0,0,0,.82,4.05,10.57,10.57,0,0,0,5.5,5.53,9.91,9.91,0,0,0,4,.82,8.75,8.75,0,0,0,1.37-.1c.45-.06.9-.15,1.33-.25a10.59,10.59,0,0,0,.55,1.4,2,2,0,0,0,.25.65,12.7,12.7,0,0,1-1.73.38,12.94,12.94,0,0,1-1.77.12,12,12,0,0,1-4.85-1,12.5,12.5,0,0,1-4-2.72,13.43,13.43,0,0,1-2.7-4,12.18,12.18,0,0,1,0-9.55,13.31,13.31,0,0,1,2.62-4,12.6,12.6,0,0,1,4-2.83,11.88,11.88,0,0,1,5-1,12.14,12.14,0,0,1,4.85,1,12.94,12.94,0,0,1,6.75,6.75,12,12,0,0,1,1,4.85Z"/><path class="cls-1" d="M49.82,13.53A13.13,13.13,0,0,1,55.75,12l0,2a9.78,9.78,0,0,0-3.88.78A10.42,10.42,0,0,0,48.6,16.9a10.78,10.78,0,0,0-2.25,3.15,10.65,10.65,0,0,0-1,3.8l0,8.95V37H43.15V12.6a10.74,10.74,0,0,1,.92-4.82A13.42,13.42,0,0,1,46.85,3.7,13.26,13.26,0,0,1,50.9,1,11.6,11.6,0,0,1,55.75,0l0,2a9.93,9.93,0,0,0-4.05.85,10.58,10.58,0,0,0-3.3,2.3,10.73,10.73,0,0,0-2.2,3.38,10.55,10.55,0,0,0-.8,4.07v4.85A13.6,13.6,0,0,1,49.82,13.53Z"/><path class="cls-1" d="M80,29.28a12.73,12.73,0,0,1-2.75,4.07,12,12,0,0,1-4,2.75,12.45,12.45,0,0,1-4.85.95l-.78,0c-.25,0-.5,0-.77-.08a12,12,0,0,1-4.35-1.4,12.89,12.89,0,0,1-3.48-2.77A13,13,0,0,1,56.6,29a12,12,0,0,1-.85-4.5,12.23,12.23,0,0,1,1-4.82,12.84,12.84,0,0,1,2.7-4.08,13.51,13.51,0,0,1,4.07-2.72,12.16,12.16,0,0,1,4.83-1,12.29,12.29,0,0,1,4.85,1,12.83,12.83,0,0,1,4,2.72l1.55,1.55L70.1,25.75l-3-.05,8.6-8.6a10.76,10.76,0,0,0-3.33-2.25,10.19,10.19,0,0,0-4-.8,9.92,9.92,0,0,0-4,.83A10.37,10.37,0,0,0,61,17.13a10.86,10.86,0,0,0-2.23,3.3,10.33,10.33,0,0,0-.12,7.77,10.45,10.45,0,0,0,4.8,5.4A9.94,9.94,0,0,0,67,34.75c.23,0,.45.06.65.08l.65,0a10.08,10.08,0,0,0,4-.82,10.42,10.42,0,0,0,5.52-5.53,10,10,0,0,0,.83-4.05h2.2A12.49,12.49,0,0,1,80,29.28Z"/><path class="cls-1" d="M83.1,24.5A10.63,10.63,0,0,1,84,19.7a13.53,13.53,0,0,1,2.78-4,13,13,0,0,1,4.07-2.75,11.67,11.67,0,0,1,4.83-1v2.2a10,10,0,0,0-4,.83,10.53,10.53,0,0,0-3.3,2.22,10.65,10.65,0,0,0-2.23,3.28,9.87,9.87,0,0,0-.82,4V37H83.1Z"/><path class="cls-1" d="M97.05,24.5A10.63,10.63,0,0,1,98,19.7a13.53,13.53,0,0,1,2.78-4,13.11,13.11,0,0,1,4.07-2.75,11.67,11.67,0,0,1,4.83-1v2.2a10,10,0,0,0-4.05.83,10.53,10.53,0,0,0-3.3,2.22,10.65,10.65,0,0,0-2.23,3.28,9.87,9.87,0,0,0-.82,4V37h-2.2Z"/><path class="cls-1" d="M135.05,29.28a12.73,12.73,0,0,1-2.75,4.07,12,12,0,0,1-4.05,2.75,12.48,12.48,0,0,1-4.85.95l-.78,0c-.25,0-.51,0-.77-.08a12,12,0,0,1-4.35-1.4,12.68,12.68,0,0,1-5.8-6.6,12,12,0,0,1-.85-4.5,12.23,12.23,0,0,1,1-4.82,12.84,12.84,0,0,1,2.7-4.08,13.51,13.51,0,0,1,4.07-2.72,12.16,12.16,0,0,1,4.83-1,12.33,12.33,0,0,1,4.85,1,12.83,12.83,0,0,1,4.05,2.72l1.55,1.55-8.65,8.65-3-.05,8.6-8.6a10.76,10.76,0,0,0-3.33-2.25,10.19,10.19,0,0,0-4-.8,9.89,9.89,0,0,0-4,.83,10.37,10.37,0,0,0-3.27,2.25,10.86,10.86,0,0,0-2.23,3.3,10.33,10.33,0,0,0-.12,7.77,10.56,10.56,0,0,0,1.92,3.13,10.83,10.83,0,0,0,2.88,2.27,9.94,9.94,0,0,0,3.55,1.15c.23,0,.45.06.65.08l.65,0a10.08,10.08,0,0,0,4-.82A10.42,10.42,0,0,0,133,28.5a10,10,0,0,0,.83-4.05H136A12.49,12.49,0,0,1,135.05,29.28Z"/><path class="cls-1" d="M138.2,24.5a10.63,10.63,0,0,1,.92-4.8,13.35,13.35,0,0,1,2.78-4A13,13,0,0,1,146,12.9a11.67,11.67,0,0,1,4.83-1v2.2a10,10,0,0,0-4.05.83,10.53,10.53,0,0,0-3.3,2.22,10.65,10.65,0,0,0-2.23,3.28,9.87,9.87,0,0,0-.82,4V37h-2.2Z"/><path class="cls-1" d="M154.55,5.9H152.3V2.35l2.25-2.3ZM152.3,12h2.25V37H152.3Z"/><path class="cls-1" d="M182.15,37H180V24.5a10,10,0,0,0-.83-4,11,11,0,0,0-2.22-3.32,10.51,10.51,0,0,0-3.3-2.25,10.09,10.09,0,0,0-4-.83,9.89,9.89,0,0,0-4,.83,10.37,10.37,0,0,0-3.27,2.25,10.86,10.86,0,0,0-2.23,3.3,9.87,9.87,0,0,0-.82,4,10,10,0,0,0,.82,4.05,10.57,10.57,0,0,0,5.5,5.53,9.88,9.88,0,0,0,4,.82,8.93,8.93,0,0,0,1.37-.1c.45-.06.89-.15,1.33-.25a9.37,9.37,0,0,0,.55,1.4,1.77,1.77,0,0,0,.25.65,12.7,12.7,0,0,1-1.73.38,12.94,12.94,0,0,1-1.77.12,12,12,0,0,1-4.85-1,12.39,12.39,0,0,1-4-2.72,13.07,13.07,0,0,1-2.7-4,12.18,12.18,0,0,1-.05-9.55,13.31,13.31,0,0,1,2.62-4,12.49,12.49,0,0,1,4-2.83,11.88,11.88,0,0,1,5-1,12.17,12.17,0,0,1,4.85,1,12.94,12.94,0,0,1,6.75,6.75,12.17,12.17,0,0,1,1,4.85Z"/><path class="cls-1" d="M124.93,39.51h1.75a2.59,2.59,0,0,1,1.68.48,1.58,1.58,0,0,1,.58,1.29,1.7,1.7,0,0,1-1.3,1.66,2.88,2.88,0,0,1,.91,1l1.54,2.36h-.62l-1.19-1.87a4.47,4.47,0,0,0-.93-1.17,1.63,1.63,0,0,0-1-.24h-.92v3.28h-.53Zm.53.44v2.67h1.13a2.14,2.14,0,0,0,1.32-.34,1.18,1.18,0,0,0,.46-1,1.16,1.16,0,0,0-.47-1,2.13,2.13,0,0,0-1.33-.36Z"/><path class="cls-1" d="M134.39,39.51V40H131.2v2.73h3.11v.45H131.2V45.9h3.27v.44h-3.8V39.51Z"/><path class="cls-1" d="M138.77,39.86v.58a3.15,3.15,0,0,0-1.52-.53,1.45,1.45,0,0,0-1,.38,1.19,1.19,0,0,0-.17,1.64,2.38,2.38,0,0,0,1,.61,8.72,8.72,0,0,1,1.13.49,1.71,1.71,0,0,1,.61.56,1.87,1.87,0,0,1-.33,2.29,2,2,0,0,1-1.41.54,3.11,3.11,0,0,1-1.74-.59v-.62a3.12,3.12,0,0,0,1.71.73,1.46,1.46,0,0,0,1-.4,1.26,1.26,0,0,0,.42-1,1.34,1.34,0,0,0-.26-.79,2.46,2.46,0,0,0-1-.65,8.26,8.26,0,0,1-1.13-.49,1.63,1.63,0,0,1-.58-.53,1.5,1.5,0,0,1-.24-.88,1.69,1.69,0,0,1,.58-1.28,2,2,0,0,1,1.39-.53A3.18,3.18,0,0,1,138.77,39.86Z"/><path class="cls-1" d="M145.16,39.51V40H142.6v6.39h-.54V40h-2.55v-.44Z"/><path class="cls-1" d="M147.68,39.47l3.15,6.87h-.55L149.2,44h-3.33l-1.08,2.36h-.55l3.15-6.87ZM149,43.54l-1.47-3.21-1.46,3.21Z"/><path class="cls-1" d="M156.49,39.51H157v3.73a3.26,3.26,0,0,1-.8,2.35,2.71,2.71,0,0,1-2.06.83,2.73,2.73,0,0,1-2.06-.82,3.06,3.06,0,0,1-.79-2.24V39.51h.53v3.83a2.7,2.7,0,0,0,.65,1.91,2.37,2.37,0,0,0,3.35,0,2.79,2.79,0,0,0,.65-2Z"/><path class="cls-1" d="M158.44,39.51h1.75a2.59,2.59,0,0,1,1.68.48,1.58,1.58,0,0,1,.58,1.29,1.7,1.7,0,0,1-1.3,1.66,2.88,2.88,0,0,1,.91,1l1.54,2.36H163l-1.19-1.87a4.47,4.47,0,0,0-.93-1.17,1.63,1.63,0,0,0-1-.24H159v3.28h-.53ZM159,40v2.67h1.13a2.14,2.14,0,0,0,1.32-.34,1.28,1.28,0,0,0,0-2,2.16,2.16,0,0,0-1.34-.36Z"/><path class="cls-1" d="M166.87,39.47,170,46.34h-.56L168.39,44h-3.34L164,46.34h-.56l3.16-6.87Zm1.32,4.07-1.48-3.21-1.46,3.21Z"/><path class="cls-1" d="M177,39.51v6.83h-.43l-5.19-6v6h-.53V39.51h.45l5.17,6v-6Z"/><path class="cls-1" d="M183.45,39.51V40h-2.56v6.39h-.53V40H177.8v-.44Z"/><path class="cls-1" d="M147,51.21v5.46h-.39v-.28a1.8,1.8,0,0,1-1.06.35,1.73,1.73,0,0,1-1.29-.54,2,2,0,0,1,0-2.66,1.74,1.74,0,0,1,1.3-.54,2.35,2.35,0,0,1,1.06.29V51.21ZM146.6,56V53.72a1.84,1.84,0,0,0-1-.34,1.39,1.39,0,0,0-1,.41,1.49,1.49,0,0,0-.4,1.05,1.51,1.51,0,0,0,.43,1.09,1.46,1.46,0,0,0,1.08.43A1.7,1.7,0,0,0,146.6,56Z"/><path class="cls-1" d="M151,54.74H148.2a1.15,1.15,0,0,0,0,.19,1.36,1.36,0,0,0,.43,1,1.45,1.45,0,0,0,1,.41,2.06,2.06,0,0,0,1.33-.53v.43a2.19,2.19,0,0,1-1.38.48,1.7,1.7,0,0,1-1.29-.54,1.91,1.91,0,0,1-.5-1.37,1.89,1.89,0,0,1,.46-1.31,1.56,1.56,0,0,1,1.18-.52,1.52,1.52,0,0,1,1.13.47A1.71,1.71,0,0,1,151,54.74Zm-2.78-.31h2.33a1.1,1.1,0,0,0-1.14-1,1.12,1.12,0,0,0-.76.28A1.36,1.36,0,0,0,148.25,54.43Z"/><path class="cls-1" d="M153.78,53.31v.41a1.82,1.82,0,0,0-1-.36.84.84,0,0,0-.55.17A.53.53,0,0,0,152,54a.48.48,0,0,0,.13.34,2.35,2.35,0,0,0,.75.39,1.86,1.86,0,0,1,.8.49,1,1,0,0,1,.18.57.87.87,0,0,1-.34.7,1.24,1.24,0,0,1-.84.29,2,2,0,0,1-1.07-.33V56a2.6,2.6,0,0,0,1.12.32.81.81,0,0,0,.55-.17.57.57,0,0,0,.21-.45.49.49,0,0,0-.14-.35,2.52,2.52,0,0,0-.75-.4,1.91,1.91,0,0,1-.79-.48.82.82,0,0,1-.18-.52.88.88,0,0,1,.34-.7,1.23,1.23,0,0,1,.82-.29A2,2,0,0,1,153.78,53.31Z"/><path class="cls-1" d="M160,51.21v5.46h-.39v-.28a1.82,1.82,0,0,1-1.06.35,1.73,1.73,0,0,1-1.29-.54,1.85,1.85,0,0,1-.53-1.33,1.79,1.79,0,0,1,.52-1.33,1.72,1.72,0,0,1,1.3-.54,2.39,2.39,0,0,1,1.06.29V51.21ZM159.57,56V53.72a1.84,1.84,0,0,0-1-.34,1.39,1.39,0,0,0-1,.41,1.45,1.45,0,0,0-.4,1.05,1.47,1.47,0,0,0,.43,1.09,1.42,1.42,0,0,0,1.07.43A1.73,1.73,0,0,0,159.57,56Z"/><path class="cls-1" d="M164,54.74h-2.83a1.15,1.15,0,0,0,0,.19,1.39,1.39,0,0,0,.42,1,1.45,1.45,0,0,0,1,.41,2.08,2.08,0,0,0,1.34-.53v.43a2.21,2.21,0,0,1-1.39.48,1.69,1.69,0,0,1-1.28-.54,1.92,1.92,0,0,1-.51-1.37,1.9,1.9,0,0,1,.47-1.31,1.6,1.6,0,0,1,2.31-.05A1.71,1.71,0,0,1,164,54.74Zm-2.78-.31h2.33q-.21-1.05-1.14-1a1.1,1.1,0,0,0-.76.28A1.31,1.31,0,0,0,161.22,54.43Z"/><path class="cls-1" d="M168.69,51.21v5.46h-.4V51.21Z"/><path class="cls-1" d="M171.65,56.74l-.23-.29a4.49,4.49,0,0,0,2.05-2.7,2.24,2.24,0,0,1-1.2.41,1.5,1.5,0,0,1-1.08-.43,1.46,1.46,0,0,1-.44-1.07,1.47,1.47,0,0,1,1.54-1.52,1.56,1.56,0,0,1,1.23.51,2,2,0,0,1,.45,1.4C174,54.41,173.19,55.64,171.65,56.74Zm1.89-3.48a1.93,1.93,0,0,0,0-.24,1.66,1.66,0,0,0-.32-1.1,1.14,1.14,0,0,0-.92-.4,1.17,1.17,0,0,0-.82.32,1.06,1.06,0,0,0-.33.8,1.13,1.13,0,0,0,.32.81,1.12,1.12,0,0,0,.81.32A1.82,1.82,0,0,0,173.54,53.26Z"/><path class="cls-1" d="M175.76,53.83a1.42,1.42,0,0,1-.71-1.23,1.45,1.45,0,0,1,2.89,0,1.44,1.44,0,0,1-.69,1.24,1.49,1.49,0,0,1,.8,1.35,1.54,1.54,0,0,1-.44,1.11,1.58,1.58,0,0,1-2.21,0,1.45,1.45,0,0,1-.46-1.08A1.55,1.55,0,0,1,175.76,53.83Zm1.89,1.33a1.07,1.07,0,0,0-.34-.8,1.17,1.17,0,0,0-.82-.32,1.07,1.07,0,0,0-.81.34,1.14,1.14,0,0,0-.33.82,1.11,1.11,0,0,0,.34.82,1.13,1.13,0,0,0,.82.34,1.12,1.12,0,0,0,.82-.34A1.24,1.24,0,0,0,177.65,55.16Zm-2.19-2.57a1,1,0,0,0,.3.75,1,1,0,0,0,.74.31,1,1,0,0,0,.74-.31,1,1,0,0,0,.29-.77,1,1,0,0,0-1-1,1,1,0,0,0-.73.31A1.06,1.06,0,0,0,175.46,52.59Z"/><path class="cls-1" d="M182.3,51.21l-2.5,5.53-.35-.15,2.25-5h-3v-.38Z"/></svg>