<svg
  version="1.0"
  xmlns="http://www.w3.org/2000/svg"
  width="700pt"
  height="500pt"
  viewBox="0 0 528.000000 428.000000"
  preserveAspectRatio="xMidYMid meet"
>
  <g
    transform="translate(0.000000,428.000000) scale(0.100000,-0.100000)"
    fill="#38bdf8"
    stroke="none"
  >
    <path
      d="M1888 4159 c-182 -22 -361 -85 -514 -181 -83 -52 -650 -478 -830
-624 -225 -182 -334 -344 -392 -584 -38 -154 -44 -264 -39 -702 4 -376 6 -422
26 -511 60 -272 170 -446 401 -633 170 -138 717 -549 816 -614 169 -109 329
-166 537 -189 59 -7 353 -11 756 -11 733 0 812 5 989 61 188 60 266 110 717
454 498 379 551 426 650 580 61 95 88 157 120 282 40 154 47 272 42 723 -4
379 -6 423 -26 513 -60 271 -167 441 -391 623 -137 111 -673 517 -780 590
-168 115 -274 162 -472 207 -89 20 -121 21 -813 23 -396 1 -754 -2 -797 -7z
m906 -649 c100 -25 167 -63 220 -121 93 -104 88 -226 -15 -327 -81 -79 -204
-122 -352 -122 -183 0 -335 70 -402 184 -34 59 -40 105 -21 169 51 175 326
280 570 217z m-1339 -281 c108 -51 172 -203 111 -264 -26 -26 -82 -41 -121
-31 -15 4 -50 31 -79 61 -48 49 -57 55 -95 55 -45 0 -105 -26 -134 -58 -36
-40 -37 -74 -7 -197 79 -315 55 -537 -65 -624 -25 -18 -44 -38 -42 -44 2 -7
28 -14 59 -17 98 -9 106 -32 58 -171 -61 -176 -63 -399 -6 -524 40 -88 65 -96
239 -80 78 7 89 6 108 -11 70 -62 62 -198 -13 -244 -122 -74 -361 -25 -467 96
-86 98 -101 195 -75 471 14 156 16 207 7 260 -23 132 -92 189 -266 218 -21 3
-37 11 -35 17 2 6 40 21 84 33 99 26 132 44 174 91 61 70 65 90 61 279 -10
420 -8 455 20 515 31 67 75 113 140 146 66 33 109 42 212 43 69 1 96 -3 132
-20z m2620 6 c72 -19 144 -63 180 -111 68 -89 81 -183 59 -435 -10 -113 -14
-213 -10 -253 10 -86 48 -161 104 -203 40 -30 72 -43 191 -73 25 -7 40 -15 35
-20 -5 -5 -42 -16 -83 -24 -138 -29 -200 -89 -222 -215 -9 -48 -7 -99 6 -237
30 -296 8 -412 -92 -505 -119 -109 -332 -148 -447 -81 -69 40 -85 166 -30 232
23 26 32 30 79 30 29 0 76 -5 105 -10 143 -27 206 55 217 285 6 125 -11 241
-52 350 -14 36 -25 76 -25 90 0 35 35 55 97 55 32 0 53 4 53 11 0 6 -26 37
-58 68 -51 49 -61 65 -77 123 -28 105 -17 314 25 473 36 138 34 167 -13 213
-39 37 -75 52 -130 52 -37 0 -46 -5 -94 -57 -52 -57 -54 -58 -109 -58 -51 0
-58 3 -86 34 -26 29 -29 40 -25 73 5 40 37 110 65 142 10 10 40 29 67 42 61
29 178 32 270 9z m-1809 -344 c91 -41 138 -142 138 -297 -1 -245 -145 -403
-235 -257 l-21 33 36 40 c49 55 80 158 81 273 0 88 0 89 -33 118 -123 110
-332 -113 -453 -483 -63 -192 -89 -338 -96 -533 -5 -143 -3 -180 11 -230 21
-74 57 -130 99 -155 42 -26 118 -26 175 0 57 26 155 120 198 192 61 100 90 59
35 -50 -62 -122 -163 -229 -254 -267 -44 -18 -125 -19 -180 -3 -55 16 -137 95
-176 167 -73 137 -91 341 -51 575 89 523 351 895 630 895 32 1 72 -7 96 -18z
m801 -31 c19 -38 16 -179 -7 -290 -29 -141 -80 -283 -165 -457 -76 -155 -95
-219 -95 -329 0 -68 17 -89 72 -85 21 1 117 89 179 163 l48 58 7 -35 c6 -32 2
-41 -42 -92 -143 -167 -237 -223 -302 -177 -34 24 -55 73 -54 131 l0 52 -66
-67 c-37 -37 -88 -78 -113 -90 -53 -26 -115 -28 -147 -6 -93 65 -94 294 -3
479 71 143 166 225 262 225 71 0 90 -20 136 -140 8 -20 13 -5 32 90 13 63 48
216 80 340 l56 225 35 18 c45 22 71 18 87 -13z m-1408 6 c93 -49 52 -206 -55
-206 -31 0 -80 47 -90 84 -9 38 3 74 36 107 32 32 66 37 109 15z m2012 -536
c37 -20 16 -129 -51 -260 -27 -53 -17 -63 58 -56 67 6 144 41 205 94 27 23 50
42 53 42 2 0 4 -9 4 -20 0 -33 -93 -118 -168 -153 -56 -26 -80 -31 -145 -32
l-79 -2 -39 -63 c-87 -136 -218 -290 -249 -290 -50 0 -99 71 -125 182 -33 148
-28 389 11 480 20 44 92 78 123 59 12 -8 9 -31 -14 -145 -23 -114 -26 -154
-23 -244 5 -117 27 -192 57 -192 19 0 100 103 156 200 33 58 38 73 40 140 2
108 51 209 119 251 36 22 41 23 67 9z m-45 -1064 c26 -26 34 -42 34 -71 0 -68
-41 -114 -101 -115 -96 0 -131 137 -51 200 38 31 78 26 118 -14z"
    ></path>
    <path
      d="M2600 2264 c-60 -37 -143 -181 -174 -301 -52 -199 36 -306 162 -198
22 20 64 65 93 102 42 52 56 79 66 127 18 85 17 95 -7 89 -18 -5 -20 0 -20 44
0 122 -51 180 -120 137z"
    ></path>
  </g>
  <style>
    path {
      fill: #000;
    }
    @media (prefers-color-scheme: dark) {
      path {
        fill: #38bdf8;
      }
    }
  </style>
</svg>