<?xml version="1.0" encoding="utf-8"?>
<!-- Generator: Adobe Illustrator 23.0.5, SVG Export Plug-In . SVG Version: 6.00 Build 0)  -->
<svg version="1.1" id="Capa_1" xmlns="http://www.w3.org/2000/svg" xmlns:xlink="http://www.w3.org/1999/xlink" x="0px" y="0px"
	 viewBox="0 0 330 360" style="enable-background:new 0 0 330 360;" xml:space="preserve">
<style type="text/css">
	.st0{fill:url(#SVGID_1_);}
	.st1{fill:#FFFFFF;}
	.st2{fill:none;stroke:#000000;stroke-width:0.5;stroke-miterlimit:10;}
	.st3{fill:#FFFFFF;stroke:#000000;stroke-width:0.5;stroke-miterlimit:10;}
</style>
<g>
	<g>
		<g>
			<radialGradient id="SVGID_1_" cx="165" cy="180.2927" r="172.663" gradientUnits="userSpaceOnUse">
				<stop  offset="0" style="stop-color:#FFFFFF"/>
				<stop  offset="1" style="stop-color:#0F435A"/>
			</radialGradient>
			<path class="st0" d="M315.4,79.9L179.6,4.1c-9-5.1-20.2-5.1-29.2,0L14.6,79.9C5.6,85,0,94.3,0,104.4v151.7
				c0,10.1,5.6,19.4,14.6,24.5l135.8,75.9c9,5.1,20.2,5.1,29.2,0l135.8-75.9c9-5.1,14.6-14.4,14.6-24.5V104.4
				C330,94.3,324.4,85,315.4,79.9L315.4,79.9z"/>
		</g>
	</g>
	<g>
		
			<image style="overflow:visible;opacity:0.29;" width="251" height="289" xlink:href="763D3AE086681A96.png"  transform="matrix(1 0 0 1 25 38)">
		</image>
		<g>
			<path class="st1" d="M160.4,296.8C100.6,296.8,52,244.5,52,180.3S100.6,63.8,160.4,63.8c32.7,0.1,63.4,15.7,83.5,42.2
				c5.3,6.9,4.3,17-2.4,22.6c-3.2,2.7-7.3,3.9-11.4,3.4c-4.1-0.5-7.8-2.6-10.4-5.9c-14.2-18.9-36.1-30-59.3-30.1
				c-42.7,0-77.5,37.8-77.5,84.4s34.7,84.4,77.5,84.4c23.2-0.1,45.1-11.3,59.3-30.1c2.5-3.3,6.3-5.5,10.4-5.9
				c4.1-0.5,8.2,0.8,11.4,3.4c6.7,5.6,7.8,15.6,2.4,22.6C223.9,281.1,193.1,296.7,160.4,296.8z"/>
			<path class="st2" d="M160.4,296.8C100.6,296.8,52,244.5,52,180.3S100.6,63.8,160.4,63.8c32.7,0.1,63.4,15.7,83.5,42.2
				c5.3,6.9,4.3,17-2.4,22.6c-3.2,2.7-7.3,3.9-11.4,3.4c-4.1-0.5-7.8-2.6-10.4-5.9c-14.2-18.9-36.1-30-59.3-30.1
				c-42.7,0-77.5,37.8-77.5,84.4s34.7,84.4,77.5,84.4c23.2-0.1,45.1-11.3,59.3-30.1c2.5-3.3,6.3-5.5,10.4-5.9
				c4.1-0.5,8.2,0.8,11.4,3.4c6.7,5.6,7.8,15.6,2.4,22.6C223.9,281.1,193.1,296.7,160.4,296.8z"/>
		</g>
	</g>
	<path class="st3" d="M264.8,174.6l-1,2.7l-16.6,43c-1,2.6-3.9,4.3-7.1,4.3s-6.2-1.7-7.1-4.3l-30-77.6c-1.3-3.3,0.9-6.8,4.9-7.8
		c3.9-1,8.2,0.8,9.4,4l22.9,59.1l22.9-59.1c1.3-3.3,5.5-5.1,9.4-4c3.9,1,6.1,4.5,4.9,7.8l-8.3,21.6L264.8,174.6z"/>
	<path class="st3" d="M168.5,134.5h-25.2c-3.5,0-6.3,2.8-6.3,6.2v77.6c0,3.4,2.8,6.2,6.3,6.2h25.2c17.4,0,31.5-13.9,31.5-31v-27.9
		C200,148.4,185.9,134.5,168.5,134.5z M187.4,193.5c0,10.3-8.5,18.6-18.9,18.6h-12.6l-6.3-0.1v-26.4v-38.7h18.9
		c10.4,0,18.9,8.3,18.9,18.6V193.5z"/>
</g>
</svg>
