<svg id="Capa_1" data-name="Capa 1" xmlns="http://www.w3.org/2000/svg" viewBox="0 0 415.95 496"><defs><style>.cls-1{fill:#001014;}.cls-2{fill:#efefef;}.cls-3{fill:#021419;}.cls-4{fill:#ffa300;}.cls-5{fill:#0f435a;}</style></defs><title>ccdv-contact</title><path class="cls-1" d="M295.94,288.5v176a24,24,0,0,1-24,24h-240a24,24,0,0,1-24-24V32.5a24,24,0,0,1,24-24h240a24,24,0,0,1,24,24v24" transform="translate(0.06 -0.5)"/><path class="cls-2" d="M207.94,40.5h-112l-9-32h129Z" transform="translate(0.06 -0.5)"/><path class="cls-3" d="M271.94,285.92V320.5a16,16,0,0,1-16,16h-208a16,16,0,0,1-16-16v-48a16,16,0,0,1,16-16H189.52" transform="translate(0.06 -0.5)"/><path class="cls-4" d="M407.94,176.5A112,112,0,0,1,241.5,274.4l-65.19,21.73L198,230.94a112,112,0,1,1,209.9-54.44Z" transform="translate(0.06 -0.5)"/><path class="cls-2" d="M279.94,96.5h32v96h-32Z" transform="translate(0.06 -0.5)"/><path class="cls-2" d="M279.94,216.5h32v32h-32Z" transform="translate(0.06 -0.5)"/><path class="cls-5" d="M95.94,448.5h-56a8,8,0,0,0,0,16h56a8,8,0,1,0,0-16Z" transform="translate(0.06 -0.5)"/><path class="cls-5" d="M127.94,448.5h-8a8,8,0,0,0,0,16h8a8,8,0,1,0,0-16Z" transform="translate(0.06 -0.5)"/><path class="cls-5" d="M303.93,56.77c0-.09,0-.18,0-.27v-24a32,32,0,0,0-32-32h-240a32,32,0,0,0-32,32v432a32,32,0,0,0,32,32h240a32,32,0,0,0,32-32V296.23a120,120,0,0,0,0-239.46ZM205.69,16.5l-4,16H102l-4.5-16Zm82.25,448a16,16,0,0,1-16,16h-240a16,16,0,0,1-16-16V32.5a16,16,0,0,1,16-16H80.88l7.36,26.17a8,8,0,0,0,7.7,5.83h112a8,8,0,0,0,7.76-6.06l6.49-25.94h49.75a16,16,0,0,1,16,16v24c0,.09,0,.18,0,.27a120,120,0,0,0-98.59,174.91l-5.61,16.82H47.94a24,24,0,0,0-24,24v48a24,24,0,0,0,24,24h208a24,24,0,0,0,24-24V295.42c2.65.35,5.31.62,8,.8ZM170.65,301.79a8,8,0,0,0,8.19,1.93l61.91-20.64a119,119,0,0,0,23.19,9.08V320.5a8,8,0,0,1-8,8h-208a8,8,0,0,1-8-8v-48a8,8,0,0,1,8-8H178.42l-9.7,29.1a8,8,0,0,0,1.93,8.19ZM295.94,280.5a104,104,0,0,1-50.54-13.09,8,8,0,0,0-6.43-.6l-50,16.67,8.19-24.58v0l8.47-25.4A8,8,0,0,0,205,227a104,104,0,1,1,90.91,53.46Z" transform="translate(0.06 -0.5)"/><path class="cls-5" d="M151.94,272.5h-96a8,8,0,0,0,0,16h96a8,8,0,0,0,0-16Z" transform="translate(0.06 -0.5)"/><path class="cls-5" d="M87.94,296.5h-32a8,8,0,0,0,0,16h32a8,8,0,0,0,0-16Z" transform="translate(0.06 -0.5)"/><path class="cls-5" d="M119.94,296.5h-8a8,8,0,0,0,0,16h8a8,8,0,0,0,0-16Z" transform="translate(0.06 -0.5)"/><path class="cls-5" d="M311.94,88.5h-32a8,8,0,0,0-8,8v96a8,8,0,0,0,8,8h32a8,8,0,0,0,8-8v-96A8,8,0,0,0,311.94,88.5Zm-8,96h-16v-80h16Z" transform="translate(0.06 -0.5)"/><path class="cls-5" d="M311.94,208.5h-32a8,8,0,0,0-8,8v32a8,8,0,0,0,8,8h32a8,8,0,0,0,8-8v-32A8,8,0,0,0,311.94,208.5Zm-8,32h-16v-16h16Z" transform="translate(0.06 -0.5)"/></svg>