<svg xmlns="http://www.w3.org/2000/svg" xmlns:xlink="http://www.w3.org/1999/xlink" viewBox="0 0 415.5 475.5"><defs><style>.cls-1{stroke:#000;stroke-miterlimit:10;stroke-width:0.5px;fill:url(#Degradado_sin_nombre_10);}.cls-2{fill:#1b141c;}.cls-16,.cls-3{fill:#f0c7b1;}.cls-4{fill:#ffe4d6;}.cls-5{fill:#e1ac8f;}.cls-20,.cls-6{fill:none;}.cls-16,.cls-20,.cls-6{stroke:#c27b55;}.cls-16,.cls-6{stroke-width:1.5px;}.cls-7{fill:url(#Degradado_sin_nombre_4);}.cls-8{fill:#2a2a2a;}.cls-9{fill:#f5f4f5;}.cls-10,.cls-45,.cls-46{fill:#fff;}.cls-11{fill:#dfdde2;}.cls-12{fill:#b8b6c9;}.cls-13{fill:#1b1818;}.cls-14{fill:#0b0909;}.cls-15{fill:#393939;}.cls-17{fill:#c27b55;}.cls-18{fill:#e8b9a0;}.cls-19{fill:url(#Degradado_sin_nombre_3);}.cls-20{stroke-width:0.75px;}.cls-21{fill:url(#Degradado_sin_nombre_11);}.cls-22,.cls-32{opacity:0.7;}.cls-22,.cls-23,.cls-24,.cls-25,.cls-26,.cls-27,.cls-32,.cls-33,.cls-34,.cls-35,.cls-36,.cls-42,.cls-45,.cls-46{isolation:isolate;}.cls-22{fill:url(#Degradado_sin_nombre_13);}.cls-23,.cls-33,.cls-46{opacity:0.4;}.cls-23{fill:url(#Degradado_sin_nombre_13-2);}.cls-24{opacity:0.9;}.cls-25,.cls-26,.cls-34,.cls-35{opacity:0.5;}.cls-25{fill:url(#Degradado_sin_nombre_16);}.cls-26{fill:url(#Degradado_sin_nombre_16-2);}.cls-27,.cls-36{opacity:0.75;}.cls-27{fill:url(#Degradado_sin_nombre_16-3);}.cls-28{fill:url(#Degradado_sin_nombre_17);}.cls-29{fill:url(#Degradado_sin_nombre_18);}.cls-30{fill:#191c29;}.cls-31{fill:url(#Degradado_sin_nombre_11-2);}.cls-32{fill:url(#Degradado_sin_nombre_13-3);}.cls-33{fill:url(#Degradado_sin_nombre_13-4);}.cls-34{fill:url(#Degradado_sin_nombre_16-4);}.cls-35{fill:url(#Degradado_sin_nombre_16-5);}.cls-36{fill:url(#Degradado_sin_nombre_16-6);}.cls-37{fill:url(#Degradado_sin_nombre_17-2);}.cls-38{fill:url(#Degradado_sin_nombre_18-2);}.cls-39{fill:url(#Degradado_sin_nombre_20);}.cls-40{fill:url(#Degradado_sin_nombre_20-2);}.cls-41{fill:#2a232b;}.cls-42{fill:#fff5ef;}.cls-42,.cls-45{opacity:0.2;}.cls-43{fill:#0c080c;}.cls-44{fill:#3a353a;}.cls-47{fill:#26120b;}.cls-48{fill:#351d15;}</style><radialGradient id="Degradado_sin_nombre_10" cx="-364.78" cy="56.53" r="417.48" gradientTransform="translate(398.41 207.03) scale(0.52 0.54)" gradientUnits="userSpaceOnUse"><stop offset="0" stop-color="#fff"/><stop offset="1" stop-color="#0f435a"/></radialGradient><linearGradient id="Degradado_sin_nombre_4" x1="-616.17" y1="-61.71" x2="-616.17" y2="-85.08" gradientTransform="translate(2060.59 534.08) scale(3)" gradientUnits="userSpaceOnUse"><stop offset="0" stop-color="#e1ac8f" stop-opacity="0.8"/><stop offset="0.7" stop-color="#c27b55"/></linearGradient><linearGradient id="Degradado_sin_nombre_3" x1="-616.13" y1="-77.47" x2="-616.13" y2="-79.1" gradientTransform="translate(2060.59 534.08) scale(3)" gradientUnits="userSpaceOnUse"><stop offset="0.1" stop-color="#e8b9a0"/><stop offset="1" stop-color="#e1ac8f"/></linearGradient><radialGradient id="Degradado_sin_nombre_11" cx="-1022.54" cy="-183.09" r="12.84" gradientTransform="matrix(-1.66, 0, 0, 1.52, -1527.57, 483.49)" gradientUnits="userSpaceOnUse"><stop offset="0" stop-color="#fff"/><stop offset="0.54" stop-color="#fdfefe"/><stop offset="0.74" stop-color="#f6f8f9"/><stop offset="0.88" stop-color="#eaeff2"/><stop offset="0.99" stop-color="#d9e3e8"/><stop offset="1" stop-color="#d8e2e7"/></radialGradient><radialGradient id="Degradado_sin_nombre_13" cx="165.07" cy="193.37" r="9.36" gradientTransform="translate(0.09 16.14) scale(1.04 0.99)" gradientUnits="userSpaceOnUse"><stop offset="0" stop-color="#fff"/><stop offset="1" stop-color="#fff" stop-opacity="0"/></radialGradient><radialGradient id="Degradado_sin_nombre_13-2" cx="165.3" cy="193.46" r="9.35" xlink:href="#Degradado_sin_nombre_13"/><linearGradient id="Degradado_sin_nombre_16" x1="-579.87" y1="-106.54" x2="-579.37" y2="-107.13" gradientTransform="translate(1906.09 534.08) scale(3)" xlink:href="#Degradado_sin_nombre_13"/><linearGradient id="Degradado_sin_nombre_16-2" x1="-577.49" y1="-109.77" x2="-577.89" y2="-109.3" gradientTransform="translate(1906.09 534.08) scale(3)" xlink:href="#Degradado_sin_nombre_13"/><linearGradient id="Degradado_sin_nombre_16-3" x1="-576.21" y1="-111.11" x2="-577.13" y2="-110.01" gradientTransform="translate(1906.09 534.08) scale(3)" xlink:href="#Degradado_sin_nombre_13"/><radialGradient id="Degradado_sin_nombre_17" cx="169.23" cy="191.2" fx="183.31399995236526" r="23.82" gradientTransform="translate(0.09 16.14) scale(1.04 0.99)" gradientUnits="userSpaceOnUse"><stop offset="0" stop-color="#e1ac8f"/><stop offset="0.7" stop-color="#e1ac8f" stop-opacity="0.3"/><stop offset="1" stop-color="#f0c7b1" stop-opacity="0"/></radialGradient><radialGradient id="Degradado_sin_nombre_18" cx="-834.47" cy="-177.07" r="23.21" gradientTransform="matrix(1.72, -0.08, 0.09, 1.56, 1619.28, 443.62)" gradientUnits="userSpaceOnUse"><stop offset="0.9" stop-opacity="0"/><stop offset="1" stop-opacity="0.2"/></radialGradient><radialGradient id="Degradado_sin_nombre_11-2" cx="-787.63" cy="-183.19" r="12.84" gradientTransform="matrix(1.66, 0, 0, 1.52, 1560.97, 483.49)" xlink:href="#Degradado_sin_nombre_11"/><radialGradient id="Degradado_sin_nombre_13-3" cx="242.9" cy="193.37" r="9.36" xlink:href="#Degradado_sin_nombre_13"/><radialGradient id="Degradado_sin_nombre_13-4" cx="243.13" cy="193.46" r="9.35" xlink:href="#Degradado_sin_nombre_13"/><linearGradient id="Degradado_sin_nombre_16-4" x1="-603.95" y1="-106.54" x2="-603.45" y2="-107.13" gradientTransform="translate(2059.09 534.08) scale(3)" xlink:href="#Degradado_sin_nombre_13"/><linearGradient id="Degradado_sin_nombre_16-5" x1="-601.57" y1="-109.77" x2="-601.97" y2="-109.3" gradientTransform="translate(2059.09 534.08) scale(3)" xlink:href="#Degradado_sin_nombre_13"/><linearGradient id="Degradado_sin_nombre_16-6" x1="-600.29" y1="-111.11" x2="-601.22" y2="-110.01" gradientTransform="translate(2059.09 534.08) scale(3)" xlink:href="#Degradado_sin_nombre_13"/><radialGradient id="Degradado_sin_nombre_17-2" cx="239.07" cy="191.09" fx="253.1551502708687" r="23.81" xlink:href="#Degradado_sin_nombre_17"/><radialGradient id="Degradado_sin_nombre_18-2" cx="-1060.64" cy="-188.9" r="23.21" gradientTransform="matrix(-1.72, -0.08, -0.09, 1.56, -1585.87, 443.63)" xlink:href="#Degradado_sin_nombre_18"/><radialGradient id="Degradado_sin_nombre_20" cx="-805.68" cy="-147.98" r="41" gradientTransform="translate(1475.42 497.29) scale(1.57 1.63)" gradientUnits="userSpaceOnUse"><stop offset="0" stop-color="#ffe4d6" stop-opacity="0.5"/><stop offset="0.9" stop-color="#f0c7b1" stop-opacity="0"/></radialGradient><radialGradient id="Degradado_sin_nombre_20-2" cx="-805.68" cy="-207.98" r="37" xlink:href="#Degradado_sin_nombre_20"/></defs><title>Recurso 1</title><g id="Capa_2" data-name="Capa 2"><g id="Capa_1-2" data-name="Capa 1"><ellipse class="cls-1" cx="207.75" cy="237.75" rx="207.5" ry="237.5"/><g id="svga-group-subwrapper"><g id="svga-group-hair-back"><path id="SvgjsPath3962" class="cls-2" d="M299.49,89H124.71C100,120.2,89.48,165.26,106.21,218.08c14,45.82,21.17,60.11,33.14,94.95,0,0,0-6.8-.16-10.6,4.81,12.72,3,8.48,6.58,15.11a174.2,174.2,0,0,0-.83-18.15c3.6,14.94,5.85,18.2,10,26.84a87.78,87.78,0,0,0,.84-13.53c0,.06,8.36,26.09,8.36,26.14.42,1.25.78,2.45,1.15,3.54.47-5.06.89-11.74,1.2-18,1.1,3.47,2.41,7.5,3.82,11.57.62,4.24,1.25,8.75,1.83,13.1.21-2.23,79.76-2.23,80,0,.57-4.35,1.2-8.8,1.83-13.1,1.41-4.07,2.71-8.1,3.81-11.57.32,6.25.79,12.93,1.2,18,.37-1,.74-2.23,1.15-3.48,0-.06,8.37-26.09,8.37-26.14a87.73,87.73,0,0,0,.83,13.53c4.13-8.7,6.38-12,10-26.85a161.58,161.58,0,0,0-.84,18.15c3.55-6.68,1.78-2.39,6.59-15.11-.16,3.81-.16,10.6-.16,10.6,12-34.83,19.13-49.13,33.14-94.94C334.67,165.26,324.21,120.2,299.49,89Z"/><path id="SvgjsPath3963" d="M299.49,89l1.78,8.42c21,30.49,28.48,72.45,14.06,120.43-12.39,43.21-16.62,51.47-29.17,90.33.37-13.15-.41-7.06,4.81-26.09,8.78-31.35,12.91-35.27,14.06-52.33-2.77,18.75-11,29.29-16.25,51.63-.16.65-2.25,8.26-2.46,8.86,0,.92-6.27,20.49-7,22.12C282.56,262.81,299.65,241,309,202.59c5.13-22.93,2.67-33.53-.31-55.7-1.52-11.25-3.61-24-8.41-28,5.17,5.38,6.42,19.19,7.31,28.1.63,6.36,3.87,25.6,1.47,43.81-5.54,33.85-23.84,64-27.91,94v.05c-4.6,18.32-5,22.5-11,37.56-.26-7.12-.26-11.58.05-17.67,9.36-25.38,6.9-16.41,12.54-48.86-.36,1-6.16,19.13-11.65,36.47.36-4.62.83-10.27,1.41-17.44v.05c-4.81,33.86-1.83,17.07-10.14,45.71-2.82-24,3.61-58.64,4.23-64-4.81,19.79-7.52,35.82-6.69,55.33-.47,1.63-.83,2.77-1,3.64-1.15-19.13-1.26-22.23-1.26-22.72-.57,28.21.47,2.89-4.54,40.87-.32,1-.68,2.12-1.1,3.32-1.15-9.4-1.78-21.74-2.25-26.41a54.87,54.87,0,0,0-10.3-.82c-15.62.44-6,1.52-27.23,2.07-21.22-.55-11.6-1.63-27.23-2.07a55.09,55.09,0,0,0-10.29.82c-.48,4.67-1,17-2.25,26.41-.37-1.2-.73-2.28-1.1-3.32-5-37.93-4-12.77-4.55-40.87,0,.49-.1,3.59-1.25,22.72-.26-.87-.58-2-1-3.64.84-19.51-1.93-35.54-6.69-55.33.63,5.39,7.06,40.06,4.24,64-8.37-28.7-5.33-11.85-10.14-45.71v-.05c.57,7.17,1,12.82,1.41,17.44C147.81,275,142,256.83,141.59,255.85c5.65,32.4,3.19,23.48,12.55,48.86.31,6.09.31,10.55.05,17.67-6.06-15-6.43-19.19-11-37.56v-.05c-4.08-30.06-22.37-60.17-27.91-94-2.4-18.21.84-37.45,1.46-43.81.89-8.91,2.15-22.72,7.32-28.1-4.81,4-6.9,16.8-8.41,28-3,22.17-5.49,32.77-.32,55.7C124.66,241,141.75,262.81,145,312.38c-.73-1.63-7-21.2-7-22.12-.21-.6-2.3-8.26-2.46-8.86C130.3,259,122,248.52,119.27,229.77c1.15,17.06,5.28,21,14.06,52.33,5.23,19,4.45,12.94,4.81,26.09-12.54-38.86-16.77-47.12-29.16-90.33-14.43-48-7-89.94,14.06-120.43L124.81,89c-24.72,31.19-35.22,76.25-18.5,129.07,14,45.82,21.17,60.11,33.14,94.95,0,0,0-6.8-.16-10.6,4.81,12.72,3,8.48,6.59,15.11a177,177,0,0,0-.84-18.15c3.61,14.94,5.86,18.2,10,26.84a87.73,87.73,0,0,0,.83-13.53c0,.06,8.36,26.09,8.36,26.14.42,1.25.79,2.45,1.15,3.54.47-5.06.89-11.74,1.21-18,4.54,14.34,3.39,7.82,5.64,24.67.26-2.17.47-4.18.73-6,.06.11.06.16.11.27,3.5-23.48,3.55-20.27,4.7-30.6,30,1.69,38.68,1.69,68.94,0,1.2,10.38,1.2,6.85,4.71,30.6.05-.11.05-.16.1-.27.26,1.85.47,3.86.73,6,2.25-16.85,1.1-10.33,5.65-24.67.31,6.25.78,12.93,1.2,18,.36-1.09.73-2.23,1.15-3.54,0,0,8.36-26.08,8.36-26.14a87.78,87.78,0,0,0,.84,13.53c4.13-8.69,6.37-12,10-26.84a163.87,163.87,0,0,0-.84,18.15c3.56-6.69,1.78-2.39,6.59-15.11C285,306.23,285,313,285,313c12-34.84,19.13-49.13,33.14-94.95C334.67,165.26,324.21,120.2,299.49,89ZM164.22,336.18c-2.09-8.53-3.86-14-5.27-18.26,1.67,4.51,2.92,7.83,3.5,9.4.78-4.24,1.46-9,1.67-10.65.26,1,.63,2.23,1.1,3.69C165,324.88,164.64,330.09,164.22,336.18Zm2.46-16.52c.11-2,.16-3.86.26-5.49.21,1,.94,5.71,1.88,12.06C167.62,322.54,167.05,320.75,166.68,319.66ZM177,312.1c-.16.66-1.05,5.38-2.09,10.82.26-4.84.42-9.08.31-11.9,2.15-.27,8.94-.55,18.87,1C189.21,312.1,183.56,312.1,177,312.1Zm70.14,0c-6.58,0-12.23,0-17.09-.05,8.73-1.36,15.84-1.41,18.87-1,0,2.77.05,7,.31,11.9C248.22,317.48,247.33,312.76,247.17,312.1Zm8.16,14.13c.94-6.41,1.72-11.14,1.88-12.06.05,1.68.15,3.53.26,5.49C257.1,320.75,256.53,322.54,255.33,326.23Zm4.6,9.95c-.37-6.09-.68-11.3-.95-15.82.42-1.46.79-2.71,1.1-3.69.21,1.63.89,6.41,1.62,10.65.58-1.57,1.83-4.89,3.5-9.4C263.79,322.21,262,327.65,259.93,336.18Z"/></g><g id="svga-group-humanbody-single"><path id="SvgjsPath2893" class="cls-3" d="M361.69,395.85c-3.45-7.71-12.86-19.18-23.31-22.39-12.91-3.91-42.08-8.64-52.9-11.3-8.67-2.12-26.13-18.43-32.25-23.91a7.19,7.19,0,0,1-2-4.52C251,316,257.78,269,257.78,269H166.37S173.16,316,173,333.73a6.9,6.9,0,0,1-2,4.52c-6.11,5.48-23.57,21.79-32.24,23.91-10.82,2.61-40,7.55-52.9,11.47-10.45,3.15-19.86,14.45-23.31,22.22-5.8,13-7.21,36.69-7.21,57.07h313.6C368.9,432.54,367.49,409,361.69,395.85Z"/><path id="SvgjsPath2894" class="cls-4" d="M304.82,370.26C343,376,359.08,384.44,364.09,453h4.76c0-20.38-1.36-44-7.16-57.06-3.45-7.72-12.86-19.19-23.31-22.39-12.91-3.92-42.08-8.64-52.9-11.31-8.67-2.12-28.59-19.67-33.92-26.63,5.28,7.67,20.07,25.44,33,30.11C290.76,367.86,295.94,368.9,304.82,370.26Zm-165.21-4.62c13-4.68,27.75-22.45,33-30.11-5.33,7-25.25,24.56-33.92,26.63-10.82,2.61-40,7.55-52.9,11.47C75.37,376.78,66,388.08,62.51,395.85c-5.8,13-7.16,36.69-7.16,57.07h4.76c5-68,21.11-76.9,59.27-82.72C128.21,368.9,133.39,367.86,139.61,365.64Z"/><path id="SvgjsPath2895" class="cls-5" d="M205.25,392.38s-7.94-2.61-11.08-3.86c-16.36-6.52-69.62-10.76-69.62-10.76s56.09,2.33,68.42,4.51c-.73-7.77-4.76-32.61-4.76-32.61s8,27.39,10,34.35C199.35,387.65,205.25,392.38,205.25,392.38Zm16.94-2.23a3.1,3.1,0,0,0-.47.43A4.48,4.48,0,0,0,222.19,390.15Zm-16.94,2.23s4.55,4.89,6.8,4.94c3,.11,7.58-4.73,9.67-6.68-2,1.57-6.54,2.28-8.31,2.33C211.32,393,205.25,392.38,205.25,392.38Zm33-12.29c-2.4.38-6.89,1.31-6.89,1.31l3.6-24.3c-1,5-7,26.42-12.75,33,3-2.61,9.67-3.92,13.07-4.4,16-2.45,16-2.4,64.39-8.05C299.65,377.7,254.07,377.48,238.23,380.09Z"/><path id="SvgjsPath2896" class="cls-6" d="M361.69,395.85c-3.45-7.71-12.86-19.18-23.31-22.39-12.91-3.91-42.08-8.64-52.9-11.3-8.67-2.12-26.13-18.43-32.25-23.91a7.19,7.19,0,0,1-2-4.52C251,316,257.78,269,257.78,269H166.37S173.16,316,173,333.73a6.9,6.9,0,0,1-2,4.52c-6.11,5.48-23.57,21.79-32.24,23.91-10.82,2.61-40,7.55-52.9,11.47-10.45,3.15-19.86,14.45-23.31,22.22-5.8,13-7.21,36.69-7.21,57.07h313.6C368.9,432.54,367.49,409,361.69,395.85Z"/></g><g id="svga-group-chinshadow-single"><path id="SvgjsPath3639" class="cls-7" d="M250.15,334.71c-.05-.27-.05-.54-.1-.81-.16-12,2.87-37.07,4.86-52.29-24.62-3.26-61-3.2-85.67,0,2,15.28,5,40.28,4.86,52.29a2.47,2.47,0,0,1,0,.6c6,5.86,12,10.65,17.35,13.31,8.31,4.13,33,4,41.4,0C238.13,345.2,244.14,340.53,250.15,334.71Z"/></g><g id="svga-group-clothes-single"><path id="SvgjsPath3985" class="cls-8" d="M48.19,454.22c-4-22.61-3.6-77.61,14.11-77.5,20.6-8.64,45.89-18.58,67.11-24.94,10.82-11.8,21.07-23,41.09-34.73.62,4.24,2.92,13.91,0,19.18-2.15,3.86-9.05,9.08-15,13.65-3.19,4.45-6.17,8.75-10.35,14.83,8.1,36.36,15,55.06,15.83,86.63,0,0-2.3,1.14,101.09.66,3.45-36.42,7.84-54.73,16.25-88.21,0,0-6.74-8.15-11.29-14.46-3.24-3.26-13.12-12.28-13.85-14.13-1.83-4.45-.83-10.11.16-18.53,16.93,7.93,26.66,19.62,40.87,34.73,12.13,3.48,48.4,16.25,66.54,24.78,6.22-.16,9.72,3.26,12.33,8.91,8.47,18.26,6.48,44.51,3.4,69.79C346.69,454.93,133.49,458.46,48.19,454.22Z"/><path id="SvgjsPath3981" class="cls-9" d="M122.36,454.55l2.09-99.24s16-4.08,26.08-10.27c27.44,35.81,108.92,28.26,122.83-1,2.35.87,4.28,1.95,6.69,2.77a51.11,51.11,0,0,0,14.42,7.33l1.47,100.6C273.51,455,122.36,454.55,122.36,454.55Z"/><path id="SvgjsPath3982" class="cls-10" d="M296.77,359.88c-6.63-1.2-11.91-2.78-14.84-5.77-8.36,16.36-42,26.69-53.1,28.21,32.25-10.22,45.78-17.61,51.11-35.16,3.14,3.86,10.25,5.76,19.29,7.39ZM137.88,354.5c2.3-.49,3.4-2,5.7-2.61l-2.41-3.05c-4.86,3.64-14.06,5.38-24.93,7.23l.32,6.09a89.67,89.67,0,0,0,17.92-5.44c11.71,13.86,30.06,20.66,48.72,23.48C159.73,374.33,146.35,364.44,137.88,354.5Z"/><path id="SvgjsPath3983" class="cls-11" d="M271.48,347.43c-9.31,18.53-79.55,40.11-119.17,1.41-2.46,1-9.83,3.43-9.83,3.43,28.85,37.61,113.42,37.88,136-.17A66.26,66.26,0,0,0,271.48,347.43Z"/><path id="SvgjsPath3984" class="cls-12" d="M273.25,343.79c-15.83,30.27-98.1,34.56-122.67,1-9,2.56-17.61,7.94-26.29,9.29l-1.93,100.44,173.58.16L294.58,353c-5.28-1.14-10.19-4.45-14.53-6.36C277.7,345.58,275.66,344.66,273.25,343.79ZM150,345.85c21.79,37.67,107.93,30.11,124.55.17,2,.81,2.51,1.14,4.86,1.9-17.2,34.56-102.39,45.6-137.25,1.85C142.38,349.71,147.5,346.72,150,345.85Zm-9.57,5.44c28.17,44.07,121.16,37.28,140.44-2.12a30.62,30.62,0,0,0,12.44,6.09l2.61,96.3h-173l3-95C130.2,354.28,137.2,352.59,140.39,351.29Z"/><path id="SvgjsPath3986" class="cls-13" d="M171.12,321.4c.26,1.74.47,3.42.63,4.94-.37.44-27,38.1-27.18,38.37C151.16,349.22,160.51,333.14,171.12,321.4Zm81.8,0c-.26,1.74-.31,3.42-.47,4.94.37.44,26.55,36.63,26.76,36.91C272.26,348.84,263.58,333.14,252.92,321.4ZM314,372.05c-6.69,10.16-8.15,13.64-15.47,23.75,1.67,0,4.39.27,6.06.27C310.36,385.8,310.36,380.58,314,372.05Zm6.9,73.75c6-14.51,10.87-27.23,16.83-41.79l-1.93-3.26C330.8,415.64,325.52,430.8,320.92,445.8ZM119.64,396c1.67,0,4.39-.27,6.06-.27-7.37-10.06-8.78-10.71-15.47-20.87C113.89,383.46,113.89,385.8,119.64,396Zm-31.15,4.67L86.56,404c6,14.51,7.47,27.28,13.43,41.8C95.28,430.8,93.45,415.64,88.49,400.69Z"/><path id="SvgjsPath3987" class="cls-14" d="M158.21,346.18c1.83-2.66,8.21-11.85,13.49-20.49C173.27,334.6,170.39,339.88,158.21,346.18Zm94.24-21.09A201.23,201.23,0,0,0,266,346C252.87,339.71,252,333.35,252.45,325.09Z"/><path id="SvgjsPath3988" class="cls-15" d="M253.34,316.94a2.24,2.24,0,0,1,0-.27c28.38,16.3,44.79,40.81,63.87,59.08-.68,1.19-1.93,1.95-2.66,3.09C294.63,363,285.17,339.11,253.34,316.94ZM167.78,318c-23.57,13.37-56.82,54.4-60.11,57.5.68,1.19,1.1.92,1.83,2.12C129.47,361.83,135,346.18,167.78,318Zm193.07,58.15c-1.57-1.3-38.62-16.36-66.79-24.4,52.84,26.57,71.5,30.22,80.7,39.67C374.18,389.82,372.93,375.85,360.85,376.18ZM129.68,351.51A562.34,562.34,0,0,0,62.3,376.78c-8.41.16-14.42,12.93-15.73,26.25C58.28,375.58,52.53,394,129.68,351.51Z"/><path id="SvgjsPath3989" d="M379.25,412.65c-.52-14.08-4.81-37.67-18.35-36.63-1.09-1-32.66-15.93-66.32-25.44-11.55-12.17-25.87-28.69-41.35-34.18-1.09,10.49-2.29,17.33.32,20.7a63,63,0,0,0,11.86,10.66,178,178,0,0,0,12.76,15.92c-8.52,33.75-13.8,51-17.2,87.55H163.18c-3.4-36.46-8.68-53.8-17.2-87.55a178,178,0,0,0,12.76-15.92A59.41,59.41,0,0,0,170.6,337.1c2.67-3.42,1.46-10.27.31-20.7-15.47,5.49-29.84,22-41.34,34.18C95.91,360.09,64.39,375,63.24,376c-13.53-1-17.82,22.55-18.34,36.63-.63,17.12,2.3,40.65,2.51,42.28H376.74C377,453.3,379.88,429.77,379.25,412.65ZM169.71,336.23c-3.55,3.65-5.75,5.17-10.14,8.59,7.58-10.22,6.8-8.86,12.08-18.31C171.91,330.58,170.44,335.53,169.71,336.23ZM50.33,451.72c-1.67-20.92-4.54-39.78.68-60.32,2-7.88,3.92-13.21,11.71-13.86,1.67,9,12.75,46.85,22.42,72.61-9.77-39.46-8.31-30.65-12.91-46.42-1.51-5.27-2.92-10.59-4.65-15.76C66.38,384.39,65,380.8,64,377.1l63.4-24.24c-.42.44-20.23,21.91-20.7,22.5,2.88,4.95,12.23,11.8,17,19.19-19.5,1.9-29,5.16-36.07,6.25.53,1.52,14.22,41.36,15.63,45.11-2.3-12.94-7.53-33.1-13.54-44.35,2.2-.27,28.33-4.08,36.7-5.65-2.3-4.68-12.6-13.75-18.14-20.6,32.35-29.62,39.88-44.67,62.09-57.83.26,2.45.68,4.9.89,7.4-24.77,38.37-27.65,38.42-27.65,38.42,7.21,29,16.52,58.42,16.52,88.15ZM254.44,336.23c-.68-.7-2.2-5.65-1.94-9.67,5.28,9.46,4.5,8.1,12.08,18.32C260.19,341.4,258,339.88,254.44,336.23ZM373.87,451.72l-109.76-.27c0-29.73,9.3-59.13,16.51-88.15,0,0-2.92-.05-27.65-38.42.16-2.45.63-4.9.84-7.4,22.21,13.16,29.69,28.21,62.09,57.83-5.48,6.79-15.78,15.92-18.13,20.6,8.31,1.63,34.44,5.38,36.69,5.65-6,11.25-11.24,31.47-13.54,44.35,1.41-3.75,15.11-43.59,15.63-45.11-7.06-1.09-16.57-4.35-36.07-6.25,4.76-7.39,14.12-14.24,17-19.19-.47-.59-20.28-22.06-20.7-22.5l63.4,24.24c-.94,3.7-2.3,7.23-3.55,10.87-1.78,5.22-3.14,10.49-4.65,15.76-4.55,15.71-3.14,7-12.91,46.42,9.67-25.76,20.75-63.59,22.42-72.61,7.79.65,9.67,6,11.71,13.86C378.41,411.94,375.54,430.8,373.87,451.72Z"/></g><g id="svga-group-head"><g id="svga-group-ears-left"><path id="SvgjsPath3788" class="cls-16" d="M126.91,207.65c-2.36-4-9.94-15-15.74-13.48-4.7,1.25-4.65,8.1-5,12.17-.53,5.93-.74,16.31.83,20.49,1.52,4,6.22,11.85,9.15,14.78,3.61,3.65,9.35,15.28,10.09,16.47,1.09,1.9,3.34,4.62,6.79,4.4,4.81-.32,9-5.05,9.36-7.33C144.36,242.86,133,218.14,126.91,207.65Z"/><path id="SvgjsPath3789" class="cls-17" d="M124.61,232.1a12.13,12.13,0,0,1,.26-4,12.52,12.52,0,0,0,.26-3.54c-.47-3.42-3-9.89-4.65-13.37-1.94-4-5-9.13-8.89-10.43a3,3,0,0,0-3.29.76c-.47.49-.58,1-.42,1.14s.47-.38,1-.87-.78-.05,0,0c-.31,1.69-1.36,10.27-.62,16.52a39.4,39.4,0,0,0,2,9.19,8.94,8.94,0,0,0,.26,1.68c1.57,7.18,11.82,16.58,14.17,19.3.42.49.89.76,1,.65s-.16-.6-.57-1.09c-2.36-2.66-12.5-12-14-19-1.62-7.33,6.11-18.26,7.37-20.59.63,1.08,1.15,2.12,1.57,3,.31.7.68,1.46,1,2.33-.73,1.2-8,10-6.17,17,.68,2.61,6,5.93,8.05,6.85a4,4,0,0,1,2,2.12c.58,1,0,3.64,1.94,4.46a2.6,2.6,0,0,0,1,.22,1.66,1.66,0,0,0,1.2-.49,6.43,6.43,0,0,1,0,1.52c0,.7.06,1,.21,1s.32-.27.37-1a10.26,10.26,0,0,0-.11-2.33c-.41-1.47-1.72-3.1-3.08-4.84S124.92,233.57,124.61,232.1Zm-14.48-6.35c-3.66-11.31,2-21.58,2.82-23.1,1.57.65,4,3.58,5.07,5.27C117.24,209.28,110.28,218.14,110.13,225.75Zm16.93,18c-1.72-.76-1.1-3.26-1.67-4.23a5,5,0,0,0-2.3-2.4,5,5,0,0,1-.89-.54c-4.18-9.89.47-14.24,1.62-15.11a18.89,18.89,0,0,1,.73,3.21,16.06,16.06,0,0,1-.26,3.37,12.12,12.12,0,0,0-.21,4.24c.37,1.57.63,4.83,2,6.57a20.72,20.72,0,0,1,2.93,4.46A1.51,1.51,0,0,1,127.06,243.73Z"/></g><g id="svga-group-ears-right"><path id="SvgjsPath3790" class="cls-16" d="M296.88,207.65c2.35-4,9.93-15,15.73-13.48,4.7,1.25,4.65,8.1,5,12.17.52,5.93.73,16.31-.84,20.49-1.51,4-6.22,11.85-9.15,14.78-3.6,3.65-9.35,15.28-10.08,16.47-1.1,1.9-3.35,4.62-6.8,4.4-4.81-.32-9-5.05-9.35-7.33C279.42,242.86,290.81,218.14,296.88,207.65Z"/><path id="SvgjsPath3791" class="cls-17" d="M297.24,238.46c-1.36,1.74-2.66,3.37-3.08,4.84a7.78,7.78,0,0,0-.1,2.34c0,.65.2,1,.36,1s.26-.32.21-1v-1.52a1.76,1.76,0,0,0,1.2.49,2.63,2.63,0,0,0,1.05-.22c1.88-.81,1.36-3.42,1.93-4.45a4.15,4.15,0,0,1,2-2.12c2-.93,7.37-4.24,8-6.85,1.88-7-5.44-15.82-6.17-17,.37-.87.73-1.69,1-2.34.42-.87.94-1.9,1.57-3,1.25,2.28,9,13.21,7.36,20.6-1.51,7-11.65,16.3-14,19-.42.49-.73,1-.58,1.08s.58-.16,1-.65c2.35-2.66,12.59-12.06,14.16-19.29.1-.55.21-1.14.26-1.69a38.84,38.84,0,0,0,2-9.18,72.16,72.16,0,0,0-.63-16.52c.78-.06-.42-.38,0,0s.84.92,1,.87.06-.66-.42-1.15a3,3,0,0,0-3.29-.76c-3.87,1.31-7,6.42-8.88,10.44-1.68,3.53-4.24,10-4.66,13.37a15.07,15.07,0,0,0,.27,3.53,13.66,13.66,0,0,1,.26,4C298.81,233.57,298.6,236.78,297.24,238.46Zm8.52-30.54c1.05-1.69,3.45-4.62,5.07-5.27.84,1.52,6.54,11.85,2.83,23.1C313.5,218.14,306.5,209.28,305.76,207.92Zm-11,35.43a16.45,16.45,0,0,1,2.92-4.45c1.36-1.74,1.62-5.06,2-6.58a13.53,13.53,0,0,0-.21-4.24,11.63,11.63,0,0,1-.26-3.37,20.7,20.7,0,0,1,.73-3.2c1.15.87,5.86,5.21,1.62,15.1a4,4,0,0,1-.94.55,4.78,4.78,0,0,0-2.3,2.39c-.57,1,.06,3.48-1.67,4.24A1.53,1.53,0,0,1,294.79,243.35Z"/></g><g id="svga-group-faceshape-wrap"><g id="svga-group-faceshape-single"><path id="SvgjsPath3636" class="cls-3" d="M281.09,277.21c-7.84,16.69-31.41,46.36-48.29,54.24-8.42,3.91-33.09,4.13-41.4,0-16.67-8.26-40.4-37.61-48.29-54.24C134.33,258.68,119.8,198,119.8,198a104.81,104.81,0,0,1-3.14-25.49c-.1-55.43,42.6-100.43,95.28-100.54s95.5,44.78,95.6,100.22a104.86,104.86,0,0,1-3.08,25.49C304.46,197.76,289.87,258.57,281.09,277.21Z"/><path id="SvgjsPath3637" class="cls-18" d="M228,73.41c42.34,10.32,73.85,50.22,73.8,97.88a104.87,104.87,0,0,1-3.14,25.49c0,.11-13.48,60.7-22.16,79.24-7.63,16.3-30.89,44.78-47.14,53-3.4,1.74-13.64,2.55-17.25,2.55s-13.85-.81-17.25-2.55c-16.25-8.26-39.51-36.74-47.14-53-8.68-18.54-22.16-79.19-22.16-79.24a104.87,104.87,0,0,1-3.14-25.49c-.1-47.66,31.41-87.56,73.75-97.88-45.21,8-79.6,49.35-79.55,99.13A104.87,104.87,0,0,0,119.75,198c0,.11,14.47,60.7,23.31,79.24,7.94,16.63,31.67,45.81,48.29,54.24,4.18,2.12,14.58,3,20.33,3s16.94-.92,21.07-3c16.62-8.43,40.35-37.61,48.29-54.24,8.83-18.54,23.31-79.19,23.31-79.24a104.87,104.87,0,0,0,3.14-25.49C307.59,122.7,273.2,81.34,228,73.41Z"/><path id="SvgjsPath3638" class="cls-6" d="M281.09,277.21c-7.84,16.69-31.41,46.36-48.29,54.24-8.42,3.91-33.09,4.13-41.4,0-16.67-8.26-40.4-37.61-48.29-54.24C134.33,258.68,119.8,198,119.8,198a104.81,104.81,0,0,1-3.14-25.49c-.1-55.43,42.6-100.43,95.28-100.54s95.5,44.78,95.6,100.22a104.86,104.86,0,0,1-3.08,25.49C304.46,197.76,289.87,258.57,281.09,277.21Z"/></g></g><g id="svga-group-mouth-single"><path id="SvgjsPath3738" class="cls-19" d="M212.41,303.25c-4.44.21-5.69-4.52-5.69-4.52s6.16.93,11-.59C217.64,298.14,216.33,303,212.41,303.25Z"/><path id="SvgjsPath3742" class="cls-17" d="M212.83,299.66a36.85,36.85,0,0,1-6.06-.16.42.42,0,0,1-.37-.44.41.41,0,0,1,.42-.38c.05,0,6.43.65,10.56-.54a.36.36,0,0,1,.47.27.39.39,0,0,1-.26.49A19,19,0,0,1,212.83,299.66Z"/><path id="SvgjsPath3743" class="cls-10" d="M184.66,282.59S204.31,285,210.9,285c7.16,0,30.21-2.45,30.21-2.45-6.69,5.76-14,11.31-30.68,11.42C195.53,294.11,191.72,288.52,184.66,282.59Z"/><path id="SvgjsPath3744" class="cls-20" d="M184.66,282.59S204.31,285,210.9,285c7.16,0,30.21-2.45,30.21-2.45-6.69,5.76-14,11.31-30.68,11.42C195.53,294.11,191.72,288.52,184.66,282.59Z"/></g><g id="svga-group-eyes-left"><g id="svga-group-eyesback-left"><path id="SvgjsPath3415" class="cls-21" d="M185.55,215.47c-5.18-1.3-7.79,1.74-15.37,1.91-12.65.27-15.57-1-17.56-4.3a23.47,23.47,0,0,1-2-4.24l-.15-6.74c2.09-6.41,30.63-7.12,40.61,2.94a8.87,8.87,0,0,1,.73,3,18.22,18.22,0,0,1-1.46,4.46A10.82,10.82,0,0,1,185.55,215.47Z"/></g><g id="svga-group-eyesiriswrapper-left"><g id="svga-group-eyesiriscontrol-left"><g id="svga-group-eyesiris-left"><path id="SvgjsPath3792" d="M181.13,207.51a9.41,9.41,0,1,1-18.81,0h0a9.41,9.41,0,1,1,18.81,0Z"/><path id="SvgjsPath3793" class="cls-22" d="M170.68,197.84h-.11l.16.65A2.85,2.85,0,0,1,170.68,197.84Zm0,.7c.1,3.21.31,6.09.84,7.12C171.78,204.52,171.31,201.7,170.68,198.54Zm.84,7.07a.81.81,0,0,1-.32.54.62.62,0,0,1-.57-.16c.05.27.05.49-.06.6a.62.62,0,0,1-.57.11.69.69,0,0,1,.21.59c-.05.17-.21.28-.47.38.26.11.42.22.47.39a.74.74,0,0,1-.21.59.62.62,0,0,1,.57.11c.11.11.11.33.06.6a.62.62,0,0,1,.57-.16c.16.05.26.27.32.54a.65.65,0,0,1,.41-.43c.16,0,.32.1.53.32a.69.69,0,0,1,.21-.6c.15-.11.36-.05.57,0-.1-.27-.16-.43-.1-.59s.26-.22.52-.28c-.21-.16-.37-.32-.37-.49s.16-.32.37-.48c-.26-.06-.47-.11-.52-.28a.61.61,0,0,1,.1-.59c-.26.1-.47.1-.57,0a.69.69,0,0,1-.21-.6.7.7,0,0,1-.53.32C171.78,206,171.62,205.88,171.52,205.61Zm.94.16c.73-.87,1.62-3.58,2.45-6.68C173.55,202,172.46,204.58,172.46,205.77Zm2.45-6.68a2.6,2.6,0,0,0,.26-.6s0-.05-.1-.05Zm-1.67,7.23c1-.44,3-2.4,5.17-4.73C175.91,203.49,173.76,205.28,173.24,206.32Zm5.17-4.73c.16-.11.32-.27.48-.38a.06.06,0,0,0-.06-.06A4.26,4.26,0,0,0,178.41,201.59Zm-4.75,5.65c1.1.16,3.76-.71,6.69-1.68C177.32,206,174.6,206.53,173.66,207.24Zm6.74-1.74a1.56,1.56,0,0,0,.52-.11v-.11A3,3,0,0,1,180.4,205.5Zm-6.74,2.72c.94.65,3.66,1.19,6.69,1.74C177.42,208.92,174.81,208.06,173.66,208.22Zm6.69,1.74.47.16V210C180.66,210,180.51,210,180.35,210Zm-7.11-.87c.52,1,2.67,2.82,5.12,4.78C176.22,211.53,174.29,209.52,173.24,209.09Zm5.12,4.78a1.25,1.25,0,0,1,.26.33l.06-.06A1.28,1.28,0,0,0,178.36,213.87Zm-5.9-4.18c0,1.19,1.09,3.8,2.4,6.68C174,213.27,173.19,210.56,172.46,209.69Zm2.4,6.68c0,.11,0,.27.11.38H175A2.9,2.9,0,0,0,174.86,216.37Zm-3.4-6.58c-.52,1-.73,3.92-.83,7.12C171.25,213.76,171.72,210.94,171.46,209.79Zm-.83,7.12a.86.86,0,0,0-.06.38h.06Zm-.06-7.5c-.94.66-2.4,3.1-3.92,5.87C168.64,212.84,170.31,210.56,170.57,209.41Zm-3.92,5.93a4,4,0,0,1-.26.32.06.06,0,0,1,.06.06A2.63,2.63,0,0,1,166.65,215.34Zm3.3-6.69c-1.1.11-3.5,1.58-6.12,3.32C166.71,210.72,169.22,209.58,170,208.65ZM163.83,212c-.15.05-.26.11-.42.16a.06.06,0,0,0,.06.06A1.4,1.4,0,0,0,163.83,212Zm5.91-4.24c-1.05-.44-3.82-.27-6.9,0C165.92,208,168.64,208.11,169.74,207.73Zm-6.9-.06c-.16,0-.37,0-.52,0v.11C162.47,207.73,162.68,207.67,162.84,207.67Zm7.11-.92c-.73-.87-3.24-2.06-6.07-3.37C166.45,205.12,168.85,206.59,170,206.75Zm-6.07-3.37-.47-.32c0,.05,0,.05,0,.1A4.28,4.28,0,0,0,163.88,203.38Zm6.69,2.61c-.26-1.14-1.93-3.42-3.92-5.92C168.22,202.89,169.69,205.34,170.57,206Zm-3.86-5.92c-.11-.17-.21-.38-.32-.55,0,0,0,.06-.1.06C166.45,199.74,166.55,199.9,166.71,200.07Z"/><path id="SvgjsPath3797" class="cls-23" d="M173.08,197.89H173a2.81,2.81,0,0,1,0,.65Zm-.15.65c-.68,3.16-1.26,5.93-1,7.07C172.51,204.58,172.77,201.75,172.93,198.54Zm-.94,7.07c-.16.27-.27.38-.42.43s-.32-.1-.52-.32a.72.72,0,0,1-.21.6.59.59,0,0,1-.58-.06c.11.27.16.49.05.6a.69.69,0,0,1-.52.27c.21.16.37.33.37.49s-.16.33-.37.49c.26,0,.47.11.52.27a.63.63,0,0,1-.1.6c.26-.11.47-.11.57,0a.57.57,0,0,1,.16.6c.21-.22.37-.33.52-.27s.32.16.42.43a.59.59,0,0,1,.31-.49.66.66,0,0,1,.58.16c-.05-.27-.05-.49,0-.59a.62.62,0,0,1,.58-.11.77.77,0,0,1-.21-.6c.05-.16.21-.27.47-.38-.26-.11-.42-.22-.47-.44a.55.55,0,0,1,.26-.54c-.26,0-.47,0-.58-.16a.75.75,0,0,1-.05-.6.62.62,0,0,1-.57.16A.79.79,0,0,1,172,205.61Zm.88.38c.95-.65,2.46-3,4-5.82C174.86,202.62,173.14,204.85,172.87,206Zm4-5.82c.16-.16.26-.32.42-.48-.06,0-.06-.06-.11-.06C177.11,199.79,177,200,176.9,200.17Zm-3.4,6.58c1.1-.11,3.56-1.52,6.17-3.21C176.79,204.79,174.23,205.88,173.5,206.75Zm6.17-3.15c.21-.06.37-.16.57-.22,0,0-.05,0-.05-.11A4.71,4.71,0,0,0,179.67,203.6Zm-6,4.13c1,.43,3.82.38,6.9.16C177.53,207.57,174.76,207.35,173.71,207.73Zm6.85.16c.15,0,.36.06.52.06v-.11A1.67,1.67,0,0,1,180.56,207.89Zm-7.11.82c.73.92,3.19,2.17,6,3.48C176.9,210.39,174.55,208.87,173.45,208.71Zm6,3.48a3.44,3.44,0,0,0,.42.27l.05-.06A1.62,1.62,0,0,0,179.46,212.19Zm-6.69-2.72c.26,1.14,1.88,3.48,3.76,6C175.07,212.62,173.71,210.12,172.77,209.47Zm3.82,6a1.4,1.4,0,0,0,.2.38.06.06,0,0,0,.06-.06A1.22,1.22,0,0,1,176.59,215.45Zm-4.71-5.66c-.31,1.15.11,4,.68,7.12C172.51,213.71,172.35,210.83,171.88,209.79Zm.68,7.12v.38h.05C172.61,217.19,172.56,217,172.56,216.91Zm-1.62-7.28c-.78.87-1.67,3.59-2.61,6.63C169.74,213.38,170.89,210.83,170.94,209.63Zm-2.61,6.63-.16.33h.05C168.27,216.53,168.27,216.37,168.33,216.26Zm1.83-7.23c-1,.38-3.09,2.34-5.28,4.62C167.39,211.81,169.58,210.07,170.16,209Zm-5.28,4.62c-.11.06-.21.17-.32.22l.06,0C164.72,213.87,164.77,213.76,164.88,213.65Zm4.86-5.49c-1.1-.16-3.76.6-6.74,1.58C166.08,209.25,168.8,208.82,169.74,208.16ZM163,209.69c-.16,0-.32.05-.42.05v0A1.77,1.77,0,0,0,163,209.69Zm6.74-2.56c-.89-.71-3.61-1.3-6.64-1.85C166,206.37,168.64,207.24,169.74,207.13Zm-6.64-1.85-.47-.16v.11A1.71,1.71,0,0,1,163.1,205.28Zm7.11,1c-.52-1-2.61-2.88-5.07-4.89C167.23,203.76,169.16,205.83,170.21,206.26Zm-5.07-4.84a3.37,3.37,0,0,0-.42-.43l-.05,0A3.13,3.13,0,0,1,165.14,201.42Zm5.85,4.3c.06-1.2-1-3.81-2.3-6.74C169.48,202.08,170.26,204.85,171,205.72Zm-2.3-6.74-.15-.65c-.06,0-.06,0-.11,0A2.6,2.6,0,0,1,168.69,199Z"/><path id="SvgjsPath3801" d="M175.38,207.51a3.71,3.71,0,1,1-3.71-3.86A3.8,3.8,0,0,1,175.38,207.51Z"/><path id="SvgjsPath3802" class="cls-24" d="M175.38,207.51a3.71,3.71,0,1,1-3.71-3.86A3.8,3.8,0,0,1,175.38,207.51Z"/><path id="SvgjsPath3803" class="cls-25" d="M166.55,212a1.53,1.53,0,0,1,2.14.44,1.69,1.69,0,0,1-.42,2.23,1.55,1.55,0,0,1-2.14-.44,1.68,1.68,0,0,1,.42-2.23Z"/><path id="SvgjsPath3807" class="cls-26" d="M174.65,207c-.42.6-1.51.54-2.51-.16s-1.46-1.74-1.09-2.4h0c.41-.59,1.51-.54,2.5.17s1.47,1.79,1.1,2.39Z"/><path id="SvgjsPath3811" class="cls-27" d="M179.09,205.34c-.88,1.41-3.18,1.52-5.12.22s-2.82-3.54-1.88-4.95,3.19-1.52,5.12-.22,2.77,3.53,1.88,5Z"/></g></g></g><g id="svga-group-eyesfront-left"><path id="SvgjsPath3440" class="cls-3" d="M139.55,207.27C139,212.65,155,243.14,171,243.14s30.58-8.64,30.58-35.87c0-29-14.54-35.87-30.58-35.87S142.53,180.53,139.55,207.27Zm11.08,1.57-.15-6.74c2.09-6.41,30.63-7.12,40.61,2.94,2.19,5.27-.63,8.91-5.54,10.49-5.18-1.31-7.79,1.74-15.37,1.9-12.65.27-15.57-1-17.56-4.29A25.88,25.88,0,0,1,150.63,208.84Z"/><path id="SvgjsPath3441" class="cls-28" d="M148.91,204.55c.05,12.28,12,22.17,26.71,22.12s26.65-10.06,26.6-22.34-12-22.17-26.71-22.12S148.86,192.21,148.91,204.55Zm1.72,4.29-.15-6.74c2.09-6.41,30.63-7.12,40.61,2.94,2.19,5.27-.63,8.91-5.54,10.49-5.18-1.31-7.79,1.74-15.37,1.9-12.65.27-15.57-1-17.56-4.29A25.88,25.88,0,0,1,150.63,208.84Z"/><path id="SvgjsPath3446" class="cls-29" d="M152.62,213.08a23.47,23.47,0,0,1-2-4.24l-.15-6.74c2.09-6.41,30.63-7.12,40.61,2.94,2.19,5.27-.63,8.91-5.54,10.49-5.18-1.31-7.79,1.74-15.37,1.9C157.53,217.65,154.55,216.34,152.62,213.08Z"/><path id="SvgjsPath3450" class="cls-17" d="M195.58,202.54c-15.1-9.4-26.18-10-44.11-8.81C166.42,191.29,183.62,193.08,195.58,202.54Z"/><path id="SvgjsPath3451" class="cls-30" d="M193.65,209.22c-5.07-13.53-40.66-13.64-43-6.79v6.3a11.9,11.9,0,0,1-2.29-5.54l-3.45,1.2s4.28-6.31,8.31-7.12C188,190,193.34,207.05,193.65,209.22ZM188.16,216c-7.26-3.2-9.3.6-18.13.82-12.55.27-15-1.25-17.46-4,1.25,3.42,2.14,5.05,17,4.94C178.08,217.59,182.67,214,188.16,216Z"/></g></g><g id="svga-group-eyes-right"><g id="svga-group-eyesback-right"><path id="SvgjsPath3423" class="cls-31" d="M238,215.47c5.17-1.3,7.78,1.74,15.36,1.91,12.65.27,15.58-1,17.56-4.3a23.47,23.47,0,0,0,2-4.24l.16-6.74C271,195.69,242.47,195,232.48,205a9.11,9.11,0,0,0-.73,3,18.68,18.68,0,0,0,1.47,4.46A10.23,10.23,0,0,0,238,215.47Z"/></g><g id="svga-group-eyesiriswrapper-right"><g id="svga-group-eyesiriscontrol-right"><g id="svga-group-eyesiris-right"><path id="SvgjsPath3815" d="M261.89,207.51a9.42,9.42,0,1,1-18.82,0h0a9.42,9.42,0,1,1,18.82,0Z"/><path id="SvgjsPath3816" class="cls-32" d="M251.43,197.84h-.1l.15.65A2.85,2.85,0,0,1,251.43,197.84Zm0,.7c.11,3.21.32,6.09.84,7.12C252.53,204.52,252.06,201.7,251.43,198.54Zm.79,7.07a.81.81,0,0,1-.32.54.62.62,0,0,1-.57-.16c0,.27,0,.49-.06.6a.62.62,0,0,1-.57.11.69.69,0,0,1,.21.59c0,.17-.21.28-.47.38.26.11.42.22.47.39a.74.74,0,0,1-.21.59.62.62,0,0,1,.57.11c.11.11.11.33.06.6a.62.62,0,0,1,.57-.16c.16.05.26.27.32.54a.65.65,0,0,1,.41-.43.7.7,0,0,1,.53.32.69.69,0,0,1,.21-.6c.15-.11.36-.05.57,0-.1-.27-.16-.43-.1-.59s.26-.22.52-.28c-.21-.16-.37-.32-.37-.49s.16-.32.37-.48c-.26-.06-.47-.11-.52-.28a.61.61,0,0,1,.1-.59c-.26.1-.47.1-.57,0a.69.69,0,0,1-.21-.6.7.7,0,0,1-.53.32C252.53,206,252.37,205.88,252.22,205.61Zm1,.16c.73-.87,1.62-3.58,2.46-6.68C254.31,202,253.21,204.58,253.21,205.77Zm2.46-6.68a3.89,3.89,0,0,0,.26-.6c-.06,0-.06-.05-.11-.05ZM254,206.32c1-.44,3-2.4,5.18-4.73C256.66,203.49,254.52,205.28,254,206.32Zm5.18-4.73c.15-.11.31-.27.47-.38a.05.05,0,0,0-.05-.06A2.84,2.84,0,0,0,259.17,201.59Zm-4.76,5.65c1.1.16,3.76-.71,6.69-1.68C258.07,206,255.35,206.53,254.41,207.24Zm6.74-1.74a1.67,1.67,0,0,0,.53-.11v-.11A3,3,0,0,1,261.15,205.5Zm-6.74,2.72c.94.65,3.66,1.19,6.69,1.74C258.17,208.92,255.56,208.06,254.41,208.22ZM261.1,210l.47.16V210C261.41,210,261.26,210,261.1,210Zm-7.11-.87c.53,1,2.67,2.82,5.12,4.78C257,211.53,255,209.52,254,209.09Zm5.12,4.78a1.57,1.57,0,0,1,.27.33l.05-.06A1.28,1.28,0,0,0,259.11,213.87Zm-5.9-4.18c0,1.19,1.1,3.8,2.4,6.68C254.78,213.27,253.94,210.56,253.21,209.69Zm2.4,6.68c.06.11.06.27.11.38h.05A2,2,0,0,0,255.61,216.37Zm-3.39-6.58c-.53,1-.74,3.92-.84,7.12C252,213.76,252.48,210.94,252.22,209.79Zm-.84,7.12a1,1,0,0,0,0,.38h0Zm0-7.5c-.94.66-2.41,3.1-3.92,5.87C249.39,212.84,251.07,210.56,251.33,209.41Zm-3.92,5.93c-.11.11-.16.22-.26.32a.05.05,0,0,1,0,.06A1.91,1.91,0,0,1,247.41,215.34Zm3.29-6.69c-1.1.11-3.5,1.58-6.12,3.32C247.46,210.72,250,209.58,250.7,208.65ZM244.58,212l-.41.16s0,.06.05.06A1.4,1.4,0,0,0,244.58,212Zm5.91-4.24c-1-.44-3.81-.27-6.9,0C246.68,208,249.39,208.11,250.49,207.73Zm-6.9-.06c-.16,0-.36,0-.52,0v.11C243.23,207.73,243.43,207.67,243.59,207.67Zm7.11-.92c-.73-.87-3.24-2.06-6.06-3.37C247.2,205.12,249.6,206.59,250.7,206.75Zm-6.06-3.37-.47-.32c0,.05-.06.05-.06.1A3.86,3.86,0,0,0,244.64,203.38Zm6.69,2.61c-.26-1.14-1.94-3.42-3.92-5.92C249,202.89,250.44,205.34,251.33,206Zm-3.87-5.92c-.11-.17-.21-.38-.31-.55-.06,0-.06.06-.11.06C247.2,199.74,247.3,199.9,247.46,200.07Z"/><path id="SvgjsPath3820" class="cls-33" d="M253.84,197.89h-.11a2.81,2.81,0,0,1,0,.65Zm-.16.65c-.68,3.16-1.26,5.93-1,7.07C253.26,204.58,253.52,201.75,253.68,198.54Zm-.94,7.07c-.16.27-.26.38-.42.43s-.31-.1-.52-.32a.69.69,0,0,1-.21.6.59.59,0,0,1-.58-.06c.11.27.16.49.06.6a.73.73,0,0,1-.53.27c.21.16.37.33.37.49s-.16.33-.37.49c.26,0,.47.11.53.27a.66.66,0,0,1-.11.6c.26-.11.47-.11.58,0a.56.56,0,0,1,.15.6c.21-.22.37-.33.53-.27s.31.16.41.43c.06-.27.16-.43.32-.49a.65.65,0,0,1,.57.16c-.05-.27-.05-.49,0-.59a.62.62,0,0,1,.58-.11.77.77,0,0,1-.21-.6c.05-.16.21-.27.47-.38-.26-.11-.42-.22-.47-.44a.55.55,0,0,1,.26-.54c-.26,0-.47,0-.57-.16s-.11-.33-.06-.6a.61.61,0,0,1-.57.16A.84.84,0,0,1,252.74,205.61Zm.89.38c.94-.65,2.45-3,4-5.82C255.61,202.62,253.89,204.85,253.63,206Zm4-5.82c.16-.16.26-.32.42-.48-.05,0-.05-.06-.1-.06C257.86,199.79,257.76,200,257.65,200.17Zm-3.4,6.58c1.1-.11,3.51-1.52,6.17-3.21C257.55,204.79,255,205.88,254.25,206.75Zm6.17-3.15c.16-.06.37-.16.58-.22,0,0-.06,0-.06-.11A5.89,5.89,0,0,0,260.42,203.6Zm-6,4.13c1,.43,3.82.38,6.9.16C258.28,207.57,255.51,207.35,254.46,207.73Zm6.85.16c.16,0,.37.06.52.06v-.11A1.64,1.64,0,0,1,261.31,207.89Zm-7.11.82c.73.92,3.19,2.17,6,3.48C257.65,210.39,255.3,208.87,254.2,208.71Zm6,3.48a4.44,4.44,0,0,0,.42.27l.05-.06A1.51,1.51,0,0,0,260.21,212.19Zm-6.69-2.72c.26,1.14,1.88,3.48,3.77,6C255.82,212.62,254.46,210.12,253.52,209.47Zm3.82,6a1.2,1.2,0,0,0,.21.38.05.05,0,0,0,.05-.06A1.22,1.22,0,0,1,257.34,215.45Zm-4.71-5.66c-.31,1.15.11,4,.68,7.12C253.26,213.71,253.1,210.83,252.63,209.79Zm.68,7.12v.38h.06C253.37,217.19,253.31,217,253.31,216.91Zm-1.62-7.28c-.78.87-1.67,3.59-2.61,6.63C250.49,213.38,251.64,210.83,251.69,209.63Zm-2.61,6.63-.16.33H249C249,216.53,249,216.37,249.08,216.26Zm1.83-7.23c-1,.38-3.08,2.34-5.28,4.62C248.14,211.81,250.33,210.07,250.91,209Zm-5.28,4.62c-.1.06-.21.17-.31.22l.05,0C245.47,213.87,245.53,213.76,245.63,213.65Zm4.86-5.49c-1.1-.16-3.76.6-6.74,1.58C246.83,209.25,249.55,208.82,250.49,208.16Zm-6.74,1.53c-.16,0-.32.05-.42.05v0A1.77,1.77,0,0,0,243.75,209.69Zm6.74-2.56c-.89-.71-3.61-1.3-6.64-1.85C246.73,206.37,249.39,207.24,250.49,207.13Zm-6.64-1.85-.47-.16v.11A1.64,1.64,0,0,1,243.85,205.28Zm7.11,1c-.52-1-2.61-2.88-5.07-4.89C248,203.76,249.92,205.83,251,206.26Zm-5.07-4.84a2.81,2.81,0,0,0-.42-.43l-.05,0A3.13,3.13,0,0,1,245.89,201.42Zm5.86,4.3c.05-1.2-1.05-3.81-2.3-6.74C250.23,202.08,251,204.85,251.75,205.72Zm-2.3-6.74-.16-.65s0,0-.11,0A3.17,3.17,0,0,1,249.45,199Z"/><path id="SvgjsPath3824" d="M256.14,207.51a3.72,3.72,0,1,1-3.72-3.86A3.81,3.81,0,0,1,256.14,207.51Z"/><path id="SvgjsPath3825" class="cls-24" d="M256.14,207.51a3.72,3.72,0,1,1-3.72-3.86A3.81,3.81,0,0,1,256.14,207.51Z"/><path id="SvgjsPath3826" class="cls-34" d="M247.3,212a1.55,1.55,0,0,1,2.15.44,1.69,1.69,0,0,1-.42,2.23,1.56,1.56,0,0,1-2.15-.44,1.68,1.68,0,0,1,.42-2.23Z"/><path id="SvgjsPath3830" class="cls-35" d="M255.4,207c-.41.6-1.51.54-2.5-.16s-1.52-1.74-1.1-2.4h0c.42-.59,1.51-.54,2.51.17s1.46,1.79,1.09,2.39Z"/><path id="SvgjsPath3834" class="cls-36" d="M259.85,205.34c-.89,1.41-3.19,1.52-5.13.22s-2.82-3.54-1.88-4.95,3.19-1.52,5.13-.22,2.77,3.53,1.88,5Z"/></g></g></g><g id="svga-group-eyesfront-right"><path id="SvgjsPath3461" class="cls-3" d="M252.56,171.4c-16.05,0-30.58,6.85-30.58,35.87,0,27.23,14.53,35.87,30.58,35.87s31.2-29.41,31.46-35.87C285.17,180.36,268.55,171.4,252.56,171.4ZM271,213.08c-2,3.32-4.91,4.57-17.56,4.3-7.58-.17-10.19-3.21-15.36-1.91-4.92-1.57-7.74-5.21-5.55-10.49,10-10,38.53-9.34,40.62-2.93l-.16,6.74A22.31,22.31,0,0,1,271,213.08Z"/><path id="SvgjsPath3462" class="cls-37" d="M248.06,182.16c-14.74-.06-26.66,9.84-26.71,22.12s11.87,22.28,26.61,22.33,26.65-9.83,26.7-22.11S262.8,182.21,248.06,182.16ZM271,213.08c-2,3.32-4.91,4.57-17.56,4.3-7.58-.17-10.19-3.21-15.36-1.91-4.92-1.57-7.74-5.21-5.55-10.49,10-10,38.53-9.34,40.62-2.93l-.16,6.74A22.31,22.31,0,0,1,271,213.08Z"/><path id="SvgjsPath3467" class="cls-38" d="M271,213.08a23.47,23.47,0,0,0,2-4.24l.16-6.74C271,195.69,242.47,195,232.48,205c-2.19,5.27.63,8.91,5.55,10.49,5.17-1.31,7.78,1.74,15.36,1.9C266,217.65,269,216.34,271,213.08Z"/><path id="SvgjsPath3471" class="cls-17" d="M228,202.54c15.11-9.4,26.19-10,44.11-8.81C257.1,191.29,239.91,193.08,228,202.54Z"/><path id="SvgjsPath3472" class="cls-30" d="M270.38,197.27c4,.81,8.31,7.12,8.31,7.12l-3.45-1.2a12.58,12.58,0,0,1-2.3,5.54v-6.35c-2.35-6.8-37.95-6.74-43,6.79C230.24,207.05,235.62,190,270.38,197.27Zm-16.47,20.38c14.9.11,15.79-1.52,17-5-2.45,2.77-4.91,4.3-17.45,4-8.84-.21-10.88-4-18.14-.81C240.85,214,245.5,217.59,253.91,217.65Z"/></g></g><g id="svga-group-facehighlight-single"><path id="SvgjsPath2885" class="cls-39" d="M276.39,256c.05,36.9-28.7,66.85-64.18,66.9s-64.35-29.78-64.4-66.68,28.7-67,64.19-67S276.34,219.11,276.39,256Z"/><path id="SvgjsPath2889" class="cls-40" d="M270.9,158.19c0,33.75-26.34,61.14-58.8,61.14s-58.8-27.39-58.8-61.14,26.29-61.14,58.8-61.14S270.9,124.44,270.9,158.19Z"/></g><g id="svga-group-eyebrows-left"><path id="SvgjsPath3854" class="cls-41" d="M140,191.13c15.63-16.25,26.29-9.62,48-5.33,1.31.27,9.93,2.5,8.31,5.65-.73,1.52-3.18,1.31-4.54,1.31C170.23,192.32,159.78,176.45,140,191.13Z"/></g><g id="svga-group-eyebrows-right"><path id="SvgjsPath3855" class="cls-41" d="M284.23,191.13c-15.63-16.25-26.29-9.62-48-5.33-1.31.27-9.93,2.5-8.31,5.65.73,1.52,3.19,1.31,4.54,1.31C253.91,192.32,264.37,176.45,284.23,191.13Z"/></g><g id="svga-group-nose-single"><path id="SvgjsPath3757" class="cls-5" d="M198.15,258.46c-1.36,3.37,9.3,7,13.38,7.23,4.39.22,16.67-4.73,14.58-8.15-2.2-3.59-10.4-.49-14-.49S200,254,198.15,258.46Z"/><path id="SvgjsPath3758" class="cls-17" d="M215,261c-.37-1.25,2.92-2.61,4.18-2.77,1.72-.28,5.28,1.3,5,2.6-.31,1.15-3.34-.87-4.49-.7S215.34,262.16,215,261Zm-10.77-.44c1.51,0,3.76,1,4.18.11.47-1.09-3.35-2.39-4.5-2.23-.94.11-4.28,2.12-3.81,3S202.22,260.58,204.21,260.58Z"/><path id="SvgjsPath3759" class="cls-42" d="M212.21,252.76c.94,0,2.71-1.2,2.82-3.65.31-9.78-1.52-38.85-2.82-38.75s-3.56,28.75-3,38.75A3.61,3.61,0,0,0,212.21,252.76Z"/></g><g id="svga-group-hair-front"><path id="SvgjsPath3965" class="cls-43" d="M182.67,130.91c20.18-3.26,30.21-6.25,41.87-3.26,27.34-7,69.62,20.92,69.1,20.32l-16.41-63L193.55,81.4Z"/><path id="SvgjsPath3966" class="cls-41" d="M134,210c4.66,7.23,13,18.37,19.34,24-3.39-8.48-18-65.17-9.25-94.73,10,31.08,28.07,50.27,45.42,57.33,7.11,10.49,17.3,21.74,26.61,28.75-5.81-12.11-22.58-36-21.07-51.84,9.46,17.55,27,37.55,35.7,39.94-26.92-47-38.78-93.58-21.38-111.63,5.33,4,12.08,18,15.32,26.2,6-11.09,24.3-34.57,34.34-27.88,5.85.54,7.42,17.5,11.91,37,6.33,27.66,17,53.59-6.58,96.85,17.45-12.23,19.49-30,23.62-37.18,7.84,17-28.43,80.93-32.93,86.85,22.37-13.42,37.11-46.52,41.77-58.7,21.27-55.32,15-85.76,2.71-136a122.85,122.85,0,0,0-46.25-35.76c-30.16-13.75-73.18-13-103.75-1.47-36.43,13.92-71.24,57.56-69.15,97.5.83-3.75,2.66-12.66,5.22-17.44,6.9-12.12,11.14-20.22,30-36.36-6.75,12.93-14.27,29-18.77,42.77a46.61,46.61,0,0,0-1.46,5.22c-7.53,32-7,58.75,6.43,93.86,0-1-.21-8.32-.32-11.14-1.3-50.28-4.8-43.65,7.11-75.82-2.82,19.24-8.2,24.73,6.22,88.86,4.18,18,12.39,32.66,14.27,35.27,3.55,5.33,17.46,26,22.74,33.53-.32-1.63-5.23-23.53-5.44-24.45a8.46,8.46,0,0,0,.37,1C140.5,261.45,132.45,235.42,134,210Z"/><path id="SvgjsPath3967" class="cls-2" d="M299.49,89a115.46,115.46,0,0,0-8.2-9.3c18,34.24,17.35,103.86,1.46,138.86,11-47.72,6.9-84.4-5.54-112.44,3.13,26.84,3.5,52.12-2.67,80.65-1.83-44.95-10.71-93.64-25.61-97.72-17.19-4.73-24.35,13.15-32.56,22.28-.26-13.75-11.08-21.84-17.25-19-15.52,7.17-13.59,47.5-10.3,65.87-12.8-33.43-5.33-44.52-3.29-71.47-20.38,24.45-19,51.68-11.65,79.62a83.8,83.8,0,0,1,11-96.2c-34.13,17.28-45.89,56.47-29.53,97.66-19-28.47-8.47-62.88-4.65-91.73-23.62,51.14-33.61,68.85-25.82,119.62C113.79,146,137.93,103.08,150.11,83c-9.41,6.52-21.22,20.54-27.86,36.9,3.09-11.25,13.12-31.68,25.51-39.95-20.8,7-30.26,26-35.23,38.65,8-35.49,36.12-43.48,46.73-52.07C128.79,69.82,114.31,89,103.33,98.79c13.85-23.59,31.89-35.38,60.11-51.31a117.9,117.9,0,0,0-14,4.3c-36.37,13.86-71.18,57.5-69.09,97.44.83-3.75,2.66-12.66,5.22-17.44,6.9-12.12,11.14-20.22,30-36.36-6.75,12.93-14.27,29-18.77,42.77a46.61,46.61,0,0,0-1.46,5.22c-7.53,32-7,58.75,6.43,93.86,0-1-.21-8.32-.32-11.14-1.3-50.28-4.8-43.65,7.11-75.82-2.82,19.24-8.2,24.73,6.22,88.86,4.18,18,12.39,32.66,14.27,35.27,3.55,5.33,17.46,26,22.74,33.53-.32-1.63-5.23-23.53-5.44-24.45a8.46,8.46,0,0,0,.37,1c-6.22-23.1-14.27-49.14-12.7-74.52,4.65,7.23,13,18.37,19.33,24-3.39-8.48-18-65.16-9.25-94.73,10,31.09,28.07,50.28,45.42,57.34,7.11,10.49,17.3,21.74,26.61,28.75-5.8-12.12-22.58-36-21.07-51.85,9.46,17.56,27,37.56,35.7,39.95-26.92-47-38.78-93.59-21.37-111.63,5,3.75,11.18,16.25,14.63,24.51h0c.26.6.47,1.14.68,1.68,6-11.08,24.3-34.56,34.34-27.88,5.85.55,7.42,17.5,11.92,37,6.32,27.67,17,53.59-6.59,96.85,17.46-12.23,19.5-30,23.62-37.17,7.84,16.95-28.43,80.92-32.92,86.85,22.37-13.43,37.11-46.53,41.76-58.7C318,169.71,311.72,139.28,299.49,89Z"/><path id="SvgjsPath3968" class="cls-44" d="M140.91,284.11c-6.63-10.1-13.85-24.61-20.17-49.72,0,0-.52-2.07-1.26-5.17-7.37-31.19-11.23-57.39-4.07-82.06-4.13,19.4-1.88,34.24,1.09,53.31C119.8,221.18,128.63,261.23,140.91,284.11ZM108,129.66c-8.46,23.53-12.54,40.43-11.76,63.59C97,176.72,98.42,163.35,108,129.66Zm34.5,4.07c-4.34,22.61-6.79,34.13-2.66,54.52,2.92,15.38,5.38,23.09,9.72,38C137.83,170.47,137.62,175.15,142.48,133.73Zm27.08,4.46c2.82,32.72,19,60.27,42.75,82.34C191,197.32,174.42,169.5,169.56,138.19Zm20,9c8.26,31.74,15.32,45.05,40.14,65.11C206.61,190.36,200.86,180.53,189.52,147.16Zm125.76-23.64c-.94-3-10.09-22.77-21.64-35.93,8.41,10.93,14.32,23.86,19.55,35.6,0,0,.15.38.36,1,7.79,22.78,8.78,53.92,8,64.95C323.9,173.41,323,145.91,315.28,123.52ZM295,223.79c-7.22,14.46-10.77,21-11.92,23.15l-.31.6c-11.08,18.53-13.33,19.35-24.94,32.93C275.87,262.43,280.57,258.41,295,223.79ZM280,181c.26,21.95-3.19,33.2-14.17,50.81C277,216.61,281.77,204.11,280,181ZM139,261.45s-.31-1.19-.68-3c-5.07-24.84-5.54-37.39-6-48.43-.68,22.72,1.25,44.62,13.33,82.72C145.62,292.7,142.69,278.3,139,261.45Zm-38.52-165c6-8.37,7.94-11,15.37-18.1-13.39,10.87-23.16,23.86-30.95,48.42a31.28,31.28,0,0,0-1.2,5C88.18,116.56,100.46,95.36,100.46,96.4Zm44.9,41.41c6.37,22.34,20.07,43.75,40.24,55.44C166.79,180.09,152.93,158.35,145.36,137.81ZM266.25,94a17,17,0,0,0-6.8-4.62,15.59,15.59,0,0,1,4.08,2.5,26.25,26.25,0,0,1,5.23,6.9c8.78,16.69,14.84,68.37,16.15,86.36C284.86,167.32,280.41,109.33,266.25,94ZM208.6,91.72c7.79.11,13.8.33,18.82,19.84C223.65,90.26,214.56,91.34,208.6,91.72ZM195.38,70c-13.75,10.76-21,30.54-21.23,48C175.78,101,183,81.34,195.38,70Z"/><path id="SvgjsPath3969" d="M299.65,89.17a123.71,123.71,0,0,0-46.42-35.92c-30.1-13.81-73.12-13-103.69-1.53-36.43,13.92-71.24,57.56-69.15,97.5,4-18,13.64-33.8,35.28-53.8-6.74,12.93-14.27,29-18.77,42.77a46.61,46.61,0,0,0-1.46,5.22c-7.58,32-7.06,58.75,6.38,93.86,0-1-.21-8.32-.32-11.14-1.3-50.28,1.26-53.27,9.15-83.43-6,20.33-10.24,32.34,4.18,96.52,4.18,18,12.39,32.67,14.27,35.28,3.55,5.32,17.46,26,22.74,33.53-.32-1.63-18.82-74.84-17.72-94.89,5.28,7.22,14.89,18.53,21.74,24.24-3.4-10.38-9.3-38.21-10.19-44.13-.16-1-.37-2.56-.58-4.35-1.88-11.9-3-34.3-.41-47.56,2.3,8.26,7.78,21.25,12.85,28.43,10.56,15.27,15.63,18.64,30.89,27.55,9.41,13.43,18.45,21.74,30,30.44-18.56-32.61-20.86-40.66-22.74-52.4,8.57,18.32,19.76,32.07,37.16,40.11-13.64-27.77-35.8-72.55-27.39-101.68a36.42,36.42,0,0,1,4-9.57v0l.15-.33c2.67,2,12.23,15.6,14.9,25.38a0,0,0,0,1,.05-.05,86.1,86.1,0,0,1,12.13-17.23c26-27.06,26.29-3.31,29.37,12.07,12.65,53.15,17.93,75.54-5.38,113.42,13.48-6.41,24.56-24.62,27.49-39.84-5,37.67-17.61,56.52-37.16,90.87,4.55-3.42,4.08-3,5.64-4.24C307.38,248,323,153.14,304.09,116.45c13.75,32.61.78,123.26-46.67,164.78,31.3-48.09,32.19-70.92,35.38-107,2.14-23.31.68-30.54-.73-38.26.84,7.61,1.31,12.12-.42,28.43-3.08,24.51-7.84,51.36-26.18,68.15,21.53-34,16.2-58.7,4.18-107.56-3.09-12.71-3.82-38.15-24.26-23.31-8.1,5.6-15.94,16.52-20.38,25.54a68.89,68.89,0,0,0-15.63-28.1s0-.1-.1-.1c-2.88,4.72-16.73,18.31-4.08,60.43,6.06,20.33,14.79,36,24.57,52.83-21.54-12.77-44.06-52.94-42-84.19.47-8.75,2.15-20.27,1.94-29.18-1.26,21.68-8.36,34.83-1.52,56.41,0,0,2,6.74,5,13.91C194,190.58,204,205.58,215,224.06c-27.13-24.67-43.65-59.78-47.52-94.4-.94-14.35,5.44-37.56,11.29-41-6.11,4.29-13.79,19.94-14.58,38.26-.63,17.82,10.19,49.72,22.27,67.28-14.69-9.89-29-21-41-56.52,3-14.57,7.53-23,8.78-42.23-2.93,20.49-7.68,25.43-12.6,45.81-3.13,11.53-3.81,49.52,10.56,90.22-8.57-9.89-22.79-31.9-26.55-44.51-13.38-37.12,5.44-77.88,10.14-84.29,2.61-3.81,6.43-7.88,8-12.12-6.28,11.3-10.67,7.12-22.37,40.05-6.28,19.51-5,41.52.73,57.77,2.09,5.71,7.63,15.49,10.76,23.16-2.66,22,9.36,68.26,15.42,88.85-16.2-26.68-27.86-40.54-34.86-86.46-5.64-37.12-11.45-59.73,18.76-122.5-5.38,10-8.1,14.73-14.32,27.93h0C102.34,153,96.43,176.78,98.47,217.21,87.55,169,99.31,137,119.07,92.81c2.66-3.8,22.1-17.34,29.68-22.66-7.52,4.67-56.39,31.25-67.16,70.43,3.66-33.86,33.45-72.82,68.68-85.92,29.53-10.6,72.18-11.52,101.55,2a120.88,120.88,0,0,1,49.92,41.47Z"/></g><g id="svga-group-glasses-single"><path id="SvgjsPath3936" class="cls-45" d="M287.37,209.6c-.16,3.21-.58,6.63-.95,10.22-1.62,15.87-8.25,20.38-38.52,18.1-9.87-.76-17.35-6.58-21-16.47a74,74,0,0,1-3.71-13.8C238.29,197,273.88,196.72,287.37,209.6Zm-150.59,0c.16,3.21.53,6.63.94,10.22,1.63,15.87,8.26,20.38,38.53,18.1,9.87-.76,17.35-6.58,21-16.47a74,74,0,0,0,3.71-13.8C185.92,197,150.32,196.72,136.78,209.6Z"/><path id="SvgjsPath3937" class="cls-46" d="M287.37,209.6c-13.54-12.93-49.14-12.6-64.19-2a41.65,41.65,0,0,1-.57-10.05h0c1-12.72,21.06-11.2,32.87-11.69C284.75,184.71,288.25,194.6,287.37,209.6Zm-85.83-12.06h0c-1-12.72-21.06-11.2-32.93-11.69-29.16-1.14-32.66,8.75-31.83,23.75,13.54-12.93,49.14-12.6,64.19-2A41.49,41.49,0,0,0,201.54,197.54Z"/><path id="SvgjsPath3938" class="cls-47" d="M290.34,192.59a17.08,17.08,0,0,0-4-6c-3.87-3.53-11.08-4-17.88-4.4a255.4,255.4,0,0,0-27.38-.11c-21.64,1.47-21.28,11.42-21.28,11.42H204.37s.36-10-21.28-11.42a269.28,269.28,0,0,0-27.39.11c-6.74.38-14,.93-17.87,4.4a16.66,16.66,0,0,0-4,6L121,190v6.52c11.23,2.23,14.16,3,15.73,2.88a98.61,98.61,0,0,0,.47,20.54c2.4,16.42,9,20.82,39.1,18.59,10-.76,17.82-6.9,21.53-16.85,2.93-7.82,4.91-14.83,4.39-23.26H222c-.52,8.48,1.52,15.49,4.39,23.26,3.71,9.95,11.55,16.09,21.54,16.85,30,2.23,36.69-2.17,39.09-18.59a106.69,106.69,0,0,0,.47-20.54c1.57.11,4.5-.6,15.73-2.88V190Zm-93.81,28.54c-3.56,9.56-10.77,15.21-20.34,15.92-29.89,2.23-35.43-2.17-37.68-17.39a107.36,107.36,0,0,1-.42-20.44,1.16,1.16,0,0,0,.52-.16c1.73-10.38,10.14-13.75,45.53-12,5.85.28,10.87,1.42,13.64,4.46,1.62,1.79,3.19,4.35,3.08,6.79h.06C201.12,202.54,200.24,211.18,196.53,221.13Zm89.16-1.42c-2.24,15.22-7.79,19.68-37.68,17.39-9.57-.7-16.78-6.41-20.33-15.92-3.71-10-4.6-18.59-4.29-22.77h.05c-.15-2.45,1.41-5,3-6.8,2.77-3,7.79-4.18,13.65-4.45,35.38-1.74,43.8,1.63,45.52,12,0,.06.21.11.52.17C286.22,200.91,286.89,211.51,285.69,219.71Z"/><path id="SvgjsPath3939" class="cls-48" d="M219.84,193c.26-2.06,2.56-9.67,21.22-10.92a269.07,269.07,0,0,1,27.38.11c6.75.38,14,.87,17.88,4.4a17,17,0,0,1,4,6h0c-5.85-10.06-16-9-21.95-9.35-3.6-.22-9.72-.43-16.1-.43-4.33,0-8.1.1-11.08.32C230.08,183.79,224,185.8,219.84,193Zm-15.47,0c-.27-2.06-2.57-9.67-21.23-10.92a269.07,269.07,0,0,0-27.38.11c-6.75.38-14,.87-17.88,4.4a17,17,0,0,0-4,6h0c5.85-10.06,16-9,21.95-9.35,3.61-.22,9.72-.43,16.1-.43,4.34,0,8.05.1,11.08.32C194.07,183.79,200.24,185.8,204.37,193Z"/></g></g></g></g></g></svg>