<?xml version="1.0" encoding="utf-8"?>
<!-- Generator: Adobe Illustrator 23.0.5, SVG Export Plug-In . SVG Version: 6.00 Build 0)  -->
<svg version="1.1" id="Capa_1" xmlns="http://www.w3.org/2000/svg" xmlns:xlink="http://www.w3.org/1999/xlink" x="0px" y="0px"
	 viewBox="0 0 395 131" style="enable-background:new 0 0 395 131;" xml:space="preserve">
<style type="text/css">
	.st0{fill:#05232D;}
	.st1{fill:none;stroke:#EFEFEF;stroke-miterlimit:10;}
	.st2{fill:#EFEFEF;}
	.st3{fill:#FFA300;}
	.st4{font-family:'SpecialElite-Regular';}
	.st5{font-size:15px;}
	.st6{fill:#EFEFEF;stroke:#EFEFEF;stroke-miterlimit:10;}
	.st7{fill:#EFEFEF;stroke:#FF0000;stroke-width:5;stroke-miterlimit:10;}
	.st8{font-size:10px;}
	.st9{fill:#EFEFEF;stroke:#27FF40;stroke-width:5;stroke-miterlimit:10;}
	.st10{fill:#EFEFEF;stroke:#F910BC;stroke-width:5;stroke-miterlimit:10;}
</style>
<rect y="0" class="st0" width="395" height="131"/>
<g>
	<line class="st1" x1="0.5" y1="102.5" x2="395.5" y2="102.5"/>
	<line class="st2" x1="0.5" y1="102.5" x2="395.5" y2="102.5"/>
</g>
<text transform="matrix(1 0 0 1 -0.4346 11.5654)" class="st3 st4 st5">Timeline</text>
<line class="st6" x1="35.8" y1="94.5" x2="35.8" y2="111.5"/>
<line class="st6" x1="144.3" y1="94.5" x2="144.3" y2="111.5"/>
<line class="st6" x1="251.5" y1="94" x2="251.5" y2="111"/>
<line class="st6" x1="360.5" y1="94" x2="360.5" y2="111"/>
<text transform="matrix(1 0 0 1 18.6873 122.8906)" class="st2 st4 st5">2017</text>
<text transform="matrix(1 0 0 1 126.639 123.0996)" class="st2 st4 st5">2018</text>
<text transform="matrix(1 0 0 1 233.9585 122.4136)" class="st2 st4 st5">2019</text>
<text transform="matrix(1 0 0 1 342.7319 122.5303)" class="st2 st4 st5">2020</text>
<line class="st7" x1="36" y1="85" x2="361" y2="85"/>
<text transform="matrix(1 0 0 1 36.0767 78.8672)" class="st2 st4 st8">Ingeniero de software</text>
<line class="st9" x1="234" y1="64.5" x2="306" y2="64.5"/>
<text transform="matrix(1 0 0 1 233.7744 60.1699)" class="st2 st4 st8">Consultor</text>
<line class="st10" x1="81" y1="43.5" x2="361" y2="43.5"/>
<text transform="matrix(1 0 0 1 81.4722 37.3091)" class="st2 st4 st8">Proyectos freelance / Personales</text>
</svg>
