<?xml version="1.0" encoding="utf-8"?>
<!-- Generator: Adobe Illustrator 23.0.5, SVG Export Plug-In . SVG Version: 6.00 Build 0)  -->
<svg version="1.1" id="Layer_1" xmlns="http://www.w3.org/2000/svg" xmlns:xlink="http://www.w3.org/1999/xlink" x="0px" y="0px"
	 viewBox="0 0 410 410" style="enable-background:new 0 0 410 410;" xml:space="preserve">
<style type="text/css">
	.st0{fill:#475993;}
	.st1{fill:#FFFFFF;}
</style>
<g>
	<path class="st0" d="M26.8,28.5C-5.4,61.8,1.2,97.3,1.2,204.9c0,89.4-15.6,179,66.1,200.2c25.5,6.5,251.4,6.5,276.9,0
		c34-8.7,61.7-36.3,65.5-84.4c0.5-6.7,0.5-224.6,0-231.4c-4-51.2-35.5-80.7-77.1-86.7c-9.5-1.4-11.4-1.8-60.3-1.9
		C98.9,0.7,61-7,26.8,28.5L26.8,28.5z"/>
	<path class="st1" d="M295.8,137.2h31v-52c-5.3-0.7-23.8-2.3-45.1-2.3c-98.1,0-71.4,107-75.3,122.7H157v58.2h49.3V410h60.4V263.8
		h47.3l7.5-58.2h-54.9C269.4,167.1,256,137.2,295.8,137.2L295.8,137.2z"/>
</g>
</svg>
