<?xml version="1.0" encoding="utf-8"?>
<!-- Generator: Adobe Illustrator 23.0.5, SVG Export Plug-In . SVG Version: 6.00 Build 0)  -->
<svg version="1.1" id="Capa_1" xmlns="http://www.w3.org/2000/svg" xmlns:xlink="http://www.w3.org/1999/xlink" x="0px" y="0px"
	 viewBox="0 0 408.9 410" style="enable-background:new 0 0 408.9 410;" xml:space="preserve">
<style type="text/css">
	.st0{fill:#24292D;}
	.st1{fill:#FFFFFF;}
</style>
<path class="st0" d="M25.6,28.5C-6.6,61.8,0,97.3,0,204.9c0,89.4-15.6,179,66.1,200.2c25.5,6.5,251.4,6.5,276.9,0
	c34-8.7,61.7-36.3,65.5-84.4c0.5-6.7,0.5-224.6,0-231.4c-4-51.2-35.5-80.7-77.1-86.7c-9.5-1.4-11.4-1.8-60.3-1.9
	C97.7,0.7,59.8-7,25.6,28.5L25.6,28.5z"/>
<g id="XMLID_122_">
	<g>
		<path class="st1" d="M345,176.5c1.3-8.3,2.2-17.4,2.4-27.6c-0.1-43.7-21.3-59.2-25.4-66.5c6-33.1-1-48.2-4.3-53.4
			c-12.1-4.2-41.9,10.9-58.3,21.5c-26.6-7.7-82.9-6.9-104,2c-38.9-27.4-59.5-23.2-59.5-23.2s-13.3,23.5-3.5,57.9
			c-12.8,16.1-22.3,27.4-22.3,57.5c0,7.2,0.5,14,1.2,20.6c11,57.1,57,81.7,102.1,85.9c-6.8,5.1-14.9,14.7-16.1,25.8
			c-8.5,5.4-25.7,7.2-39,3.1c-18.7-5.8-25.9-42.3-53.9-37.1c-6.1,1.1-4.9,5.1,0.4,8.4c8.5,5.4,16.6,12.2,22.8,26.7
			c4.8,11.1,14.8,31,46.4,31c12.6,0,21.4-1.5,21.4-1.5s0.2,28.4,0.2,39.4c0,12.7-17.4,16.3-17.4,22.4c0,2.4,5.8,2.7,10.4,2.7
			c9.2,0,28.3-7.5,28.3-20.7c0-10.5,0.2-45.8,0.2-52c0-13.5,7.4-17.8,7.4-17.8s0.9,72.1-1.8,81.8c-3.1,11.4-8.8,9.8-8.8,14.8
			c0,7.6,22.9,1.8,30.5-14.7c5.9-12.9,3.3-83.7,3.3-83.7l6.1-0.1c0,0,0.1,32.4-0.1,47.2c-0.2,15.3-1.8,34.7,7.4,43.9
			c6.1,6,24.7,16.6,24.7,6.9c0-5.6-13-10.2-13-25.4v-69.8c7.9,0,9.5,22.9,9.5,22.9l2.9,42.6c0,0-1.9,15.6,17.1,22
			c6.7,2.3,21,2.9,21.7-0.9c0.7-3.9-17.2-9.6-17.4-21.7c-0.1-7.3,0.3-11.6,0.3-43.5c0-31.9-4.3-43.7-19.5-53.1
			C291.1,246.6,336.7,227.3,345,176.5z"/>
	</g>
</g>
</svg>
