<?xml version="1.0" encoding="utf-8"?>
<!-- Generator: Adobe Illustrator 23.0.5, SVG Export Plug-In . SVG Version: 6.00 Build 0)  -->
<svg version="1.1" id="Capa_1" xmlns="http://www.w3.org/2000/svg" xmlns:xlink="http://www.w3.org/1999/xlink" x="0px" y="0px"
	 viewBox="0 0 410 410" style="enable-background:new 0 0 410 410;" xml:space="preserve">
<style type="text/css">
	.st0{fill:url(#SVGID_1_);}
	.st1{fill:#FFFFFF;}
</style>
<g>
	
		<linearGradient id="SVGID_1_" gradientUnits="userSpaceOnUse" x1="-516.0448" y1="674.6695" x2="-507.6208" y2="683.725" gradientTransform="matrix(0 -42.2827 39.3387 0 -26513.9492 -21436.4746)">
		<stop  offset="0" style="stop-color:#FFDD55"/>
		<stop  offset="0.5" style="stop-color:#FF543E"/>
		<stop  offset="1" style="stop-color:#C837AB"/>
	</linearGradient>
	<path class="st0" d="M26,28.4C-6.1,61.8,0.4,97.2,0.4,204.9c0,89.4-15.6,179,66.1,200.1c25.5,6.6,251.4,6.6,276.9,0
		c34-8.8,61.7-36.3,65.4-84.4c0.5-6.7,0.5-224.6,0-231.4c-4-51.2-35.6-80.7-77.1-86.7c-9.5-1.4-11.4-1.8-60.3-1.9
		C98.2,0.7,60.2-7,26,28.4L26,28.4z"/>
	<path class="st1" d="M204.8,54.1c-61.9,0-120.6-5.5-143,52.1c-9.3,23.8-7.9,54.7-7.9,98.9c0,38.8-1.2,75.3,7.9,98.8
		c22.4,57.6,81.6,52.1,143,52.1c59.2,0,120.3,6.2,143-52.1c9.3-24,7.9-54.4,7.9-98.8c0-59,3.3-97-25.3-125.6
		C301.4,50.5,262.2,54.1,204.8,54.1L204.8,54.1z M191.3,81.3c129-0.2,145.4-14.5,136.4,184.7c-3.2,70.5-56.9,62.7-122.8,62.7
		c-120.3,0-123.7-3.4-123.7-123.7C81.1,83.3,90.6,81.3,191.3,81.3L191.3,81.3z M285.4,106.3c-10,0-18.1,8.1-18.1,18.1
		s8.1,18.1,18.1,18.1c10,0,18.1-8.1,18.1-18.1S295.4,106.3,285.4,106.3z M204.8,127.5c-42.8,0-77.5,34.7-77.5,77.5
		s34.7,77.5,77.5,77.5s77.5-34.7,77.5-77.5S247.6,127.5,204.8,127.5L204.8,127.5z M204.8,154.7c66.5,0,66.6,100.6,0,100.6
		C138.3,255.3,138.2,154.7,204.8,154.7z"/>
</g>
</svg>
