<?xml version="1.0" encoding="utf-8"?>
<!-- Generator: Adobe Illustrator 23.0.5, SVG Export Plug-In . SVG Version: 6.00 Build 0)  -->
<svg version="1.1" id="Layer_1" xmlns="http://www.w3.org/2000/svg" xmlns:xlink="http://www.w3.org/1999/xlink" x="0px" y="0px"
	 viewBox="0 0 410.1 409.7" style="enable-background:new 0 0 410.1 409.7;" xml:space="preserve">
<style type="text/css">
	.st0{fill:#1C70B3;}
	.st1{fill:#FFFFFF;}
</style>
<path class="st0" d="M26.8,28.2C-5.4,61.5,1.2,97,1.2,204.6c0,89.4-15.6,179,66.1,200.2c25.5,6.5,251.4,6.5,276.9,0
	c34-8.7,61.7-36.3,65.5-84.4c0.5-6.7,0.5-224.6,0-231.4c-4-51.2-35.5-80.7-77.1-86.7c-9.5-1.4-11.4-1.8-60.3-1.9
	C98.9,0.4,61-7.3,26.8,28.2L26.8,28.2z"/>
<g>
	<path class="st1" d="M355,350L355,350L355,350l0.1-106.6c0-52.1-11.6-92.3-74.5-92.3c-30.3,0-50.6,16.1-58.9,31.3h-0.9V156h-59.7
		v193.9h62.1v-96c0-25.3,5-49.7,37.3-49.7c31.9,0,32.3,28.9,32.3,51.4V350L355,350z"/>
	<path class="st1" d="M59.9,156h62.2V350H59.9V156z"/>
	<path class="st1" d="M91,59.5c-19.9,0-36,15.6-36,34.9s16.1,35.2,36,35.2s36-16,36-35.2C127,75.1,110.9,59.5,91,59.5z"/>
</g>
</svg>
