<?xml version="1.0" encoding="utf-8"?>
<!-- Generator: Adobe Illustrator 23.0.5, SVG Export Plug-In . SVG Version: 6.00 Build 0)  -->
<svg version="1.1" id="Capa_1" xmlns="http://www.w3.org/2000/svg" xmlns:xlink="http://www.w3.org/1999/xlink" x="0px" y="0px"
	 viewBox="0 0 410 410" style="enable-background:new 0 0 410 410;" xml:space="preserve">
<style type="text/css">
	.st0{fill:#50ABF1;}
	.st1{fill:#FFFFFF;}
</style>
<g>
	<path class="st0" d="M26.7,28.5C-5.4,61.8,1.2,97.3,1.2,205c0,89.4-15.6,179,66,200.2c25.5,6.6,251.5,6.6,277,0
		c34-8.7,61.6-36.3,65.4-84.4c0.5-6.7,0.5-224.5,0-231.4c-4-51.2-35.5-80.7-77.1-86.7c-9.5-1.3-11.4-1.8-60.3-1.9
		C99,0.8,60.9-7,26.7,28.5L26.7,28.5z"/>
	<path class="st1" d="M71.2,289.4c24.2,15.4,53,24.2,83.8,24.2c86.6,0,156.7-70.1,156.7-156.6c0-2.2-0.1-4.3-0.1-6.5
		c3.1-2.4,22.5-18,27.3-28c0,0-15.7,6.6-31.1,8.1h-0.1c0,0,0,0,0.1-0.1c1.4-1,21.2-14.4,23.9-30.5c0,0-11.2,5.9-26.7,11.2
		c-2.6,0.9-5.3,1.7-8.1,2.5c-10.1-10.7-24.3-17.4-40.1-17.4c-30.4,0-55,24.6-55,55c0,4.3,0.4,8.5,1.4,12.4
		c-4.2-0.2-68.8-3.8-112.8-57c0,0-26.3,35.9,15.7,72.7c0,0-12.8-0.5-23.8-7.1c0,0-4,43.4,43.5,54.5c0,0-9.4,3.5-24.3,1
		c0,0,8.4,35.1,50.6,38.4C152,266.3,118.6,296.4,71.2,289.4L71.2,289.4z"/>
</g>
</svg>
